<svg width="93" height="95" viewBox="0 0 93 95" fill="none" xmlns="http://www.w3.org/2000/svg">
<path d="M71.3013 50.8209C71.309 53.3913 70.3631 55.8711 68.6507 57.7696V57.7853C68.2561 59.9321 67.3913 61.9621 66.1199 63.7264C64.8486 65.4907 63.2028 66.9445 61.3036 67.981C62.4386 69.5595 63.3032 71.3199 63.8612 73.1886C63.9945 73.5933 64.0627 74.0168 64.0627 74.4434C64.0622 75.2424 63.8298 76.0236 63.3944 76.69C62.9591 77.3565 62.3398 77.8789 61.6136 78.1923C60.7977 78.5288 59.8967 78.5916 59.0429 78.3713C58.1891 78.1511 57.4277 77.6595 56.8705 76.9688C55.5968 75.4642 53.9323 74.3503 52.0655 73.7533C45.9584 71.6828 44.1603 69.6123 43.7573 66.0673H43.6488C41.5642 66.0717 39.4975 65.6779 37.5572 64.9066C36.3883 66.2878 34.8795 67.332 33.1836 67.9334C31.4877 68.5348 29.6649 68.6721 27.8997 68.3314C26.1345 67.9907 24.4896 67.1841 23.1315 65.9932C21.7734 64.8023 20.7504 63.2695 20.1659 61.5499C18.0717 62.3305 15.8219 62.5869 13.6086 62.297C11.3952 62.0072 9.28406 61.1797 7.4552 59.8853C5.62634 58.5909 4.13411 56.8679 3.10584 54.8634C2.07758 52.8589 1.54382 50.6324 1.5501 48.3739C1.54473 45.3598 2.50762 42.4256 4.29365 40.0135C4.06891 39.3685 3.95362 38.6897 3.95264 38.0057C3.95758 36.5948 4.44271 35.2288 5.32635 34.1374C6.20999 33.0461 7.4382 32.2961 8.80423 32.0138C8.77809 31.7743 8.76773 31.5332 8.77323 31.2923C8.77084 29.9529 9.10469 28.6349 9.74345 27.4619C10.3822 26.2888 11.305 25.2992 12.4251 24.5858C13.5453 23.8725 14.8262 23.4587 16.1476 23.3834C17.469 23.3081 18.7877 23.5737 19.9799 24.1553C20.8362 22.6949 21.9998 21.4433 23.3881 20.4894C24.7764 19.5356 26.3553 18.9029 28.0125 18.6364C29.6698 18.3698 31.3647 18.476 32.9769 18.9473C34.589 19.4186 36.0787 20.2435 37.3402 21.3633C37.923 20.4144 38.7531 19.6464 39.7391 19.1437C40.7251 18.641 41.829 18.4231 42.9295 18.5138C44.0299 18.6046 45.0843 19.0006 45.9769 19.6582C46.8694 20.3159 47.5656 21.2098 47.9889 22.2417C49.9128 22.0195 51.8612 22.1908 53.7184 22.7454C55.5756 23.3 57.3038 24.2267 58.8002 25.4703C60.2966 26.714 61.5308 28.2492 62.4295 29.985C63.3282 31.7207 63.873 33.6215 64.0317 35.5745H64.0782C65.1306 35.58 66.1633 35.8635 67.0743 36.3969C67.9852 36.9302 68.7428 37.695 69.272 38.6156C69.8012 39.5362 70.0838 40.5806 70.0917 41.6456C70.0996 42.7106 69.8327 43.7593 69.3172 44.6878C70.6133 46.4629 71.3091 48.6138 71.3013 50.8209Z" fill="#EF314C"/>
<path d="M69.3173 44.6878C69.8327 43.7592 70.0997 42.7106 70.0917 41.6456C70.0838 40.5806 69.8012 39.5362 69.272 38.6156C68.7428 37.695 67.9852 36.9302 67.0743 36.3968C66.1634 35.8634 65.1306 35.58 64.0782 35.5744H64.0317C63.8731 33.6215 63.3282 31.7207 62.4295 29.985C61.5308 28.2492 60.2966 26.714 58.8002 25.4703C57.3038 24.2267 55.5756 23.3 53.7184 22.7454C51.8612 22.1907 49.9128 22.0194 47.9889 22.2417C47.6859 21.5007 47.2408 20.8278 46.6793 20.2619C46.1178 19.696 45.4511 19.2483 44.7176 18.9447C43.9842 18.641 43.1986 18.4875 42.4061 18.4928C41.6137 18.4982 40.8302 18.6624 40.1008 18.9759C41.5619 19.5922 42.7249 20.7652 43.3388 22.2417C45.2627 22.0194 47.2111 22.1907 49.0684 22.7454C50.9256 23.3 52.6537 24.2267 54.1501 25.4703C55.6466 26.714 56.8808 28.2492 57.7794 29.985C58.6781 31.7207 59.223 33.6215 59.3816 35.5744H59.4281C60.4805 35.58 61.5133 35.8634 62.4242 36.3968C63.3352 36.9302 64.0927 37.695 64.6219 38.6156C65.1512 39.5362 65.4337 40.5806 65.4416 41.6456C65.4496 42.7106 65.1826 43.7592 64.6672 44.6878C66.0635 46.6118 66.7599 48.965 66.6385 51.3489C66.517 53.7329 65.5852 56.0011 64.0007 57.7696V57.7853C63.606 59.932 62.7413 61.9621 61.4699 63.7264C60.1985 65.4907 58.5528 66.9445 56.6536 67.9809C57.7885 69.5594 58.6531 71.3199 59.2111 73.1886C59.3444 73.5933 59.4126 74.0168 59.4126 74.4434C59.4075 75.0885 59.25 75.723 58.9534 76.2941C58.6569 76.8652 58.2297 77.3562 57.7076 77.7264C58.3911 78.2345 59.2166 78.5093 60.0647 78.5109C60.9128 78.5126 61.7394 78.241 62.4248 77.7356C63.1102 77.2301 63.6189 76.517 63.8771 75.6995C64.1354 74.8821 64.1298 74.0026 63.8612 73.1886C63.3032 71.3199 62.4386 69.5594 61.3036 67.9809C63.2029 66.9445 64.8486 65.4907 66.12 63.7264C67.3914 61.9621 68.2561 59.932 68.6508 57.7853V57.7696C70.2352 56.0011 71.1671 53.7329 71.2886 51.3489C71.41 48.965 70.7136 46.6118 69.3173 44.6878Z" fill="#BB193B"/>
<path d="M7.75015 92.6231C11.1744 92.6231 13.9503 89.814 13.9503 86.3488C13.9503 82.8837 11.1744 80.0746 7.75015 80.0746C4.32593 80.0746 1.55005 82.8837 1.55005 86.3488C1.55005 89.814 4.32593 92.6231 7.75015 92.6231Z" fill="#FFDC00"/>
<path d="M7.75009 80.0746C6.95231 80.078 6.16275 80.2378 5.42505 80.5452C6.5699 81.0117 7.55072 81.8141 8.24145 82.8491C8.93218 83.8842 9.30126 85.1046 9.30126 86.3535C9.30126 87.6025 8.93218 88.8229 8.24145 89.858C7.55072 90.893 6.5699 91.6954 5.42505 92.1619C6.27308 92.5105 7.18685 92.6647 8.10075 92.6135C9.01465 92.5623 9.90602 92.307 10.7109 91.8659C11.5157 91.4247 12.214 90.8088 12.7558 90.0622C13.2975 89.3155 13.6691 88.4568 13.844 87.5476C14.0189 86.6385 13.9927 85.7014 13.7672 84.8036C13.5418 83.9059 13.1228 83.0698 12.5402 82.3554C11.9577 81.641 11.226 81.066 10.3978 80.6716C9.5696 80.2773 8.66539 80.0734 7.75009 80.0746Z" fill="#FEC108"/>
<path d="M77.5014 92.6231C80.9256 92.6231 83.7015 89.814 83.7015 86.3488C83.7015 82.8837 80.9256 80.0746 77.5014 80.0746C74.0772 80.0746 71.3013 82.8837 71.3013 86.3488C71.3013 89.814 74.0772 92.6231 77.5014 92.6231Z" fill="#FFDC00"/>
<path d="M77.5013 80.0746C76.7035 80.078 75.914 80.2378 75.1763 80.5452C76.3211 81.0117 77.3019 81.8141 77.9927 82.8491C78.6834 83.8842 79.0525 85.1046 79.0525 86.3535C79.0525 87.6025 78.6834 88.8229 77.9927 89.858C77.3019 90.893 76.3211 91.6954 75.1763 92.1619C76.0243 92.5105 76.9381 92.6647 77.852 92.6135C78.7659 92.5623 79.6572 92.307 80.4621 91.8659C81.2669 91.4247 81.9653 90.8088 82.507 90.0622C83.0487 89.3155 83.4203 88.4568 83.5952 87.5476C83.7701 86.6385 83.7439 85.7014 83.5185 84.8036C83.293 83.9059 82.874 83.0698 82.2914 82.3554C81.7089 81.641 80.9772 81.066 80.149 80.6716C79.3208 80.2773 78.4166 80.0734 77.5013 80.0746Z" fill="#FEC108"/>
<path d="M62.0011 14.195C65.4254 14.195 68.2012 11.3859 68.2012 7.92073C68.2012 4.45556 65.4254 1.64648 62.0011 1.64648C58.5769 1.64648 55.801 4.45556 55.801 7.92073C55.801 11.3859 58.5769 14.195 62.0011 14.195Z" fill="#FFDC00"/>
<path d="M62.0011 1.64649C61.2033 1.64989 60.4137 1.80969 59.676 2.11706C60.8209 2.58362 61.8017 3.38598 62.4924 4.42102C63.1832 5.45606 63.5522 6.67649 63.5522 7.92544C63.5522 9.1744 63.1832 10.3948 62.4924 11.4299C61.8017 12.4649 60.8209 13.2673 59.676 13.7338C60.5241 14.0824 61.4378 14.2366 62.3517 14.1854C63.2656 14.1342 64.157 13.8789 64.9618 13.4378C65.7667 12.9966 66.465 12.3807 67.0067 11.6341C67.5484 10.8874 67.9201 10.0287 68.095 9.11954C68.2698 8.21035 68.2436 7.27326 68.0182 6.37554C67.7928 5.47782 67.3738 4.64174 66.7912 3.92733C66.2086 3.21292 65.477 2.63789 64.6488 2.24354C63.8206 1.84919 62.9164 1.64529 62.0011 1.64649Z" fill="#FEC108"/>
<path d="M85.2514 26.7434C88.6756 26.7434 91.4515 23.9344 91.4515 20.4692C91.4515 17.004 88.6756 14.1949 85.2514 14.1949C81.8272 14.1949 79.0513 17.004 79.0513 20.4692C79.0513 23.9344 81.8272 26.7434 85.2514 26.7434Z" fill="#FFDC00"/>
<path d="M85.2516 14.195C84.4538 14.1984 83.6642 14.3582 82.9265 14.6655C84.0714 15.1321 85.0522 15.9344 85.7429 16.9695C86.4336 18.0045 86.8027 19.2249 86.8027 20.4739C86.8027 21.7229 86.4336 22.9433 85.7429 23.9783C85.0522 25.0134 84.0714 25.8157 82.9265 26.2823C83.7745 26.6308 84.6883 26.785 85.6022 26.7339C86.5161 26.6827 87.4075 26.4273 88.2123 25.9862C89.0172 25.5451 89.7155 24.9291 90.2572 24.1825C90.7989 23.4359 91.1706 22.5772 91.3455 21.668C91.5203 20.7588 91.4941 19.8217 91.2687 18.924C91.0433 18.0263 90.6243 17.1902 90.0417 16.4758C89.4591 15.7614 88.7275 15.1864 87.8993 14.792C87.0711 14.3977 86.1669 14.1938 85.2516 14.195Z" fill="#FEC108"/>
<path d="M85.2514 48.7033C88.6756 48.7033 91.4515 45.8942 91.4515 42.429C91.4515 38.9639 88.6756 36.1548 85.2514 36.1548C81.8272 36.1548 79.0513 38.9639 79.0513 42.429C79.0513 45.8942 81.8272 48.7033 85.2514 48.7033Z" fill="#FFDC00"/>
<path d="M85.2516 36.1548C84.4538 36.1582 83.6642 36.318 82.9265 36.6254C84.0714 37.0919 85.0522 37.8943 85.7429 38.9293C86.4336 39.9644 86.8027 41.1848 86.8027 42.4337C86.8027 43.6827 86.4336 44.9031 85.7429 45.9382C85.0522 46.9732 84.0714 47.7756 82.9265 48.2421C83.7745 48.5907 84.6883 48.7449 85.6022 48.6937C86.5161 48.6425 87.4075 48.3872 88.2123 47.9461C89.0172 47.5049 89.7155 46.889 90.2572 46.1424C90.7989 45.3957 91.1706 44.537 91.3455 43.6278C91.5203 42.7187 91.4941 41.7816 91.2687 40.8838C91.0433 39.9861 90.6243 39.15 90.0417 38.4356C89.4591 37.7212 88.7275 37.1462 87.8993 36.7518C87.0711 36.3575 86.1669 36.1536 85.2516 36.1548Z" fill="#FEC108"/>
<path d="M48.3407 40.4761C47.9373 40.3985 47.5199 40.486 47.1801 40.7195C46.8404 40.953 46.6061 41.3134 46.5288 41.7216C46.2455 43.2321 45.5514 44.6326 44.5244 45.7657C43.4975 46.8987 42.1785 47.7193 40.7158 48.1351C39.2532 48.5509 37.7049 48.5454 36.2451 48.1193C34.7854 47.6931 33.4721 46.8633 32.453 45.723C32.3181 45.5644 32.1533 45.4347 31.9681 45.3415C31.783 45.2484 31.5813 45.1936 31.3749 45.1805C31.1686 45.1675 30.9617 45.1963 30.7665 45.2653C30.5713 45.3344 30.3918 45.4423 30.2384 45.5826C30.085 45.7229 29.961 45.8929 29.8735 46.0825C29.786 46.2721 29.7369 46.4775 29.7291 46.6866C29.7213 46.8957 29.7548 47.1042 29.8279 47.3C29.9009 47.4957 30.0119 47.6747 30.1543 47.8264C31.8769 49.7448 34.1937 51.0122 36.7233 51.42C36.185 52.3782 35.4047 53.1744 34.4624 53.727C33.52 54.2796 32.4494 54.5688 31.3602 54.565C30.9491 54.565 30.5549 54.7302 30.2642 55.0244C29.9735 55.3186 29.8102 55.7175 29.8102 56.1335C29.8102 56.5495 29.9735 56.9485 30.2642 57.2427C30.5549 57.5368 30.9491 57.7021 31.3602 57.7021C33.2764 57.7087 35.147 57.1109 36.7119 55.9917C38.2767 54.8726 39.458 53.2878 40.0915 51.4577C42.4145 51.1175 44.5754 50.0543 46.2743 48.4154C47.9733 46.7765 49.1262 44.6432 49.573 42.3114C49.6112 42.109 49.6097 41.901 49.5684 41.6992C49.5272 41.4974 49.447 41.3058 49.3326 41.1354C49.2182 40.965 49.0717 40.819 48.9015 40.7059C48.7313 40.5928 48.5408 40.5147 48.3407 40.4761ZM31.7756 34.1737C31.7756 33.7577 31.6123 33.3587 31.3216 33.0645C31.0309 32.7704 30.6367 32.6051 30.2256 32.6051C27.9655 32.608 25.7987 33.5179 24.2006 35.1351C22.6024 36.7524 21.7033 38.945 21.7004 41.2322C21.7004 41.6482 21.8637 42.0472 22.1544 42.3413C22.4451 42.6355 22.8394 42.8008 23.2505 42.8008C23.6616 42.8008 24.0558 42.6355 24.3465 42.3413C24.6372 42.0472 24.8005 41.6482 24.8005 41.2322C24.8005 39.7762 25.3721 38.3798 26.3895 37.3502C27.4069 36.3206 28.7868 35.7422 30.2256 35.7422C30.6367 35.7422 31.0309 35.577 31.3216 35.2828C31.6123 34.9886 31.7756 34.5897 31.7756 34.1737Z" fill="black"/>
<path d="M65.1011 22.0378H77.6563C78.0404 23.9421 79.1096 25.6342 80.6565 26.7861C82.2035 27.938 84.118 28.4676 86.0288 28.2723C87.9397 28.077 89.7108 27.1706 90.9988 25.7288C92.2869 24.2871 93 22.4128 93 20.4692C93 18.5256 92.2869 16.6513 90.9988 15.2096C89.7108 13.7679 87.9397 12.8615 86.0288 12.6661C84.118 12.4708 82.2035 13.0004 80.6565 14.1523C79.1096 15.3042 78.0404 16.9963 77.6563 18.9006H65.1011C63.7044 18.9039 62.3496 19.3842 61.2564 20.2639C60.1632 21.1436 59.3955 22.3711 59.0777 23.7475C56.3523 21.6982 53.0489 20.5881 49.6536 20.5806C49.3916 20.5806 49.1389 20.6119 48.8785 20.6245C48.2899 19.6267 47.483 18.7787 46.5199 18.1458C45.5568 17.5129 44.4631 17.1118 43.3229 16.9735C42.1827 16.8352 41.0263 16.9633 39.9427 17.348C38.859 17.7326 37.877 18.3636 37.072 19.1924C35.7033 18.2504 34.1682 17.5836 32.5506 17.2286V12.6264C32.5506 11.7944 32.8772 10.9964 33.4585 10.4081C34.0399 9.81979 34.8284 9.48927 35.6506 9.48927H54.4059C54.7901 11.3936 55.8592 13.0857 57.4062 14.2376C58.9531 15.3895 60.8676 15.9192 62.7784 15.7238C64.6893 15.5285 66.4604 14.6221 67.7485 13.1803C69.0365 11.7386 69.7496 9.86428 69.7496 7.92071C69.7496 5.97714 69.0365 4.1028 67.7485 2.66108C66.4604 1.21936 64.6893 0.312959 62.7784 0.117613C60.8676 -0.0777328 58.9531 0.451889 57.4062 1.6038C55.8592 2.75571 54.7901 4.44785 54.4059 6.35215H35.6506C34.0062 6.35215 32.4292 7.01318 31.2665 8.18983C30.1037 9.36648 29.4505 10.9624 29.4505 12.6264V16.9446C27.4878 17.0067 25.5643 17.5163 23.8233 18.4354C22.0823 19.3544 20.5688 20.6593 19.3955 22.2527C18.026 21.8075 16.5733 21.6893 15.1511 21.9073C13.7289 22.1253 12.3759 22.6736 11.1982 23.5093C10.0205 24.345 9.04996 25.4453 8.36273 26.724C7.6755 28.0027 7.29023 29.4251 7.23709 30.8798C5.53188 31.5236 4.11956 32.7786 3.26812 34.4064C2.41667 36.0342 2.18534 37.9217 2.61801 39.7108C0.413016 43.0265 -0.445064 47.0744 0.221999 51.0137C0.889063 54.9529 3.03 58.4807 6.20012 60.8644V78.6629C4.31832 79.0516 2.64619 80.1335 1.50789 81.699C0.369589 83.2644 -0.153775 85.2018 0.039263 87.1355C0.232301 89.0692 1.12799 90.8615 2.55267 92.1649C3.97736 93.4684 5.82955 94.19 7.75015 94.19C9.67075 94.19 11.5229 93.4684 12.9476 92.1649C14.3723 90.8615 15.268 89.0692 15.461 87.1355C15.6541 85.2018 15.1307 83.2644 13.9924 81.699C12.8541 80.1335 11.182 79.0516 9.30017 78.6629V62.7012C12.4508 64.0825 15.9691 64.3505 19.2885 63.4619C20.108 65.1407 21.3083 66.5995 22.7913 67.7192C24.2742 68.8389 25.9979 69.5878 27.8215 69.9047C29.645 70.2217 31.5168 70.0976 33.284 69.5427C35.0512 68.9879 36.6636 68.0179 37.9896 66.712C39.4358 67.1904 40.9362 67.4806 42.4552 67.581C43.2008 70.7181 45.3057 72.7572 49.6009 74.503V81.6431C49.6009 83.3072 50.2541 84.9031 51.4168 86.0797C52.5796 87.2563 54.1566 87.9174 55.801 87.9174H69.9062C70.2903 89.8217 71.3595 91.5138 72.9064 92.6657C74.4533 93.8176 76.3678 94.3473 78.2787 94.1519C80.1896 93.9566 81.9607 93.0502 83.2487 91.6085C84.5367 90.1667 85.2499 88.2924 85.2499 86.3488C85.2499 84.4053 84.5367 82.5309 83.2487 81.0892C81.9607 79.6475 80.1896 78.7411 78.2787 78.5457C76.3678 78.3504 74.4533 78.88 72.9064 80.0319C71.3595 81.1838 70.2903 82.876 69.9062 84.7803H55.801C54.9788 84.7803 54.1903 84.4497 53.6089 83.8614C53.0275 83.2731 52.7009 82.4752 52.7009 81.6431V75.6967C53.8514 76.2284 54.8726 77.0091 55.6925 77.9837C56.2305 78.6327 56.9014 79.1558 57.6587 79.5168C58.4161 79.8778 59.2419 80.0681 60.079 80.0746C60.8168 80.0746 61.5454 79.924 62.2243 79.6322C63.2295 79.1978 64.0864 78.4741 64.6888 77.5511C65.2912 76.6281 65.6124 75.5464 65.6126 74.4403C65.6126 73.8505 65.5196 73.2639 65.3367 72.7055C64.8753 71.2278 64.2514 69.8072 63.4767 68.4704C66.864 66.1276 69.228 62.5532 70.0767 58.4912C71.6798 56.5809 72.6407 54.2041 72.8205 51.7045C73.0002 49.205 72.3894 46.7124 71.0765 44.5874C71.1555 44.3945 71.2129 44.1953 71.2749 43.9976H77.6563C78.0404 45.9019 79.1096 47.5941 80.6565 48.746C82.2035 49.8979 84.118 50.4275 86.0288 50.2322C87.9397 50.0368 89.7108 49.1304 90.9988 47.6887C92.2869 46.247 93 44.3727 93 42.4291C93 40.4855 92.2869 38.6112 90.9988 37.1694C89.7108 35.7277 87.9397 34.8213 86.0288 34.626C84.118 34.4306 82.2035 34.9603 80.6565 36.1122C79.1096 37.2641 78.0404 38.9562 77.6563 40.8605H71.5694C71.3985 39.2174 70.706 37.6745 69.5958 36.4631C68.4856 35.2517 67.0174 34.4369 65.4111 34.1408C64.9505 31.3565 63.7745 28.7438 62.0011 26.5646V25.1749C62.0011 24.3429 62.3277 23.5449 62.909 22.9566C63.4904 22.3683 64.2789 22.0378 65.1011 22.0378ZM85.2514 15.7635C86.4847 15.7635 87.6675 16.2593 88.5396 17.1418C89.4116 18.0243 89.9015 19.2212 89.9015 20.4692C89.9015 21.7172 89.4116 22.9141 88.5396 23.7966C87.6675 24.6791 86.4847 25.1749 85.2514 25.1749C84.0182 25.1749 82.8354 24.6791 81.9633 23.7966C81.0913 22.9141 80.6014 21.7172 80.6014 20.4692C80.6014 19.2212 81.0913 18.0243 81.9633 17.1418C82.8354 16.2593 84.0182 15.7635 85.2514 15.7635ZM62.0011 3.21502C63.2343 3.21502 64.4171 3.7108 65.2892 4.59329C66.1612 5.47577 66.6511 6.67268 66.6511 7.92071C66.6511 9.16874 66.1612 10.3656 65.2892 11.2481C64.4171 12.1306 63.2343 12.6264 62.0011 12.6264C60.7678 12.6264 59.585 12.1306 58.713 11.2481C57.8409 10.3656 57.351 9.16874 57.351 7.92071C57.351 6.67268 57.8409 5.47577 58.713 4.59329C59.585 3.7108 60.7678 3.21502 62.0011 3.21502ZM12.4002 86.3488C12.4002 87.5968 11.9103 88.7938 11.0382 89.6762C10.1662 90.5587 8.98343 91.0545 7.75015 91.0545C6.51687 91.0545 5.33411 90.5587 4.46205 89.6762C3.58999 88.7938 3.10007 87.5968 3.10007 86.3488C3.10007 85.1008 3.58999 83.9039 4.46205 83.0214C5.33411 82.1389 6.51687 81.6431 7.75015 81.6431C8.98343 81.6431 10.1662 82.1389 11.0382 83.0214C11.9103 83.9039 12.4002 85.1008 12.4002 86.3488ZM77.5013 81.6431C78.7346 81.6431 79.9174 82.1389 80.7894 83.0214C81.6615 83.9039 82.1514 85.1008 82.1514 86.3488C82.1514 87.5968 81.6615 88.7938 80.7894 89.6762C79.9174 90.5587 78.7346 91.0545 77.5013 91.0545C76.268 91.0545 75.0853 90.5587 74.2132 89.6762C73.3412 88.7938 72.8512 87.5968 72.8512 86.3488C72.8512 85.1008 73.3412 83.9039 74.2132 83.0214C75.0853 82.1389 76.268 81.6431 77.5013 81.6431ZM85.2514 37.7234C86.4847 37.7234 87.6675 38.2192 88.5396 39.1017C89.4116 39.9841 89.9015 41.1811 89.9015 42.4291C89.9015 43.6771 89.4116 44.874 88.5396 45.7565C87.6675 46.639 86.4847 47.1348 85.2514 47.1348C84.0182 47.1348 82.8354 46.639 81.9633 45.7565C81.0913 44.874 80.6014 43.6771 80.6014 42.4291C80.6014 41.1811 81.0913 39.9841 81.9633 39.1017C82.8354 38.2192 84.0182 37.7234 85.2514 37.7234ZM68.5499 41.6683C68.5499 42.4495 68.3531 43.2181 67.9749 43.8988C67.5114 44.7218 66.8075 45.3793 65.9598 45.7811C65.7755 45.8685 65.61 45.9919 65.4728 46.144C65.3356 46.2962 65.2293 46.4742 65.1601 46.6679C65.0909 46.8617 65.06 47.0673 65.0693 47.2731C65.0786 47.4788 65.1279 47.6808 65.2143 47.8673C65.3007 48.0538 65.4225 48.2213 65.5729 48.3601C65.7233 48.499 65.8992 48.6065 66.0906 48.6766C66.2821 48.7466 66.4852 48.7779 66.6886 48.7685C66.892 48.7591 67.0915 48.7092 67.2758 48.6218C67.9198 48.3121 68.5173 47.9118 69.0506 47.4328C69.6995 48.9637 69.9004 50.6509 69.6295 52.2939C69.3586 53.9369 68.6272 55.4667 67.5223 56.7014L67.4928 56.7359C66.2043 58.1461 64.4988 59.0956 62.632 59.442C60.7652 59.7885 58.8377 59.5132 57.1386 58.6574C56.6842 58.4266 56.252 58.1535 55.8475 57.8418C56.5948 56.885 57.0571 55.7324 57.1801 54.5191C57.303 53.3059 57.0817 52.0823 56.5419 50.9919C56.4538 50.8028 56.3294 50.6335 56.1758 50.4939C56.0222 50.3542 55.8426 50.247 55.6475 50.1786C55.4524 50.1101 55.2457 50.0818 55.0396 50.0953C54.8336 50.1088 54.6323 50.1638 54.4475 50.2572C54.2628 50.3505 54.0983 50.4802 53.9638 50.6388C53.8293 50.7973 53.7274 50.9815 53.6642 51.1804C53.601 51.3793 53.5777 51.589 53.5956 51.7972C53.6136 52.0053 53.6725 52.2078 53.7689 52.3926C54.1195 53.1038 54.2055 53.9191 54.0111 54.6892C53.8168 55.4593 53.355 56.133 52.7102 56.5869C52.3237 56.8482 51.8873 57.0242 51.4292 57.1036C50.9711 57.1831 50.5017 57.1641 50.0513 57.048C49.6009 56.9319 49.1797 56.7212 48.8151 56.4296C48.4504 56.1381 48.1504 55.7721 47.9346 55.3556C47.7506 54.9835 47.4281 54.7006 47.038 54.5691C46.6479 54.4376 46.2222 54.4683 45.8544 54.6545C45.4867 54.8406 45.2071 55.167 45.0772 55.5617C44.9473 55.9565 44.9776 56.3873 45.1616 56.7595C45.8782 58.2375 47.1325 59.3774 48.6615 59.94C50.1905 60.5026 51.8753 60.4444 53.3628 59.7774C54.0773 60.4362 54.874 61.0009 55.7312 61.4526C57.2203 62.232 58.8588 62.6749 60.5336 62.7507C62.2083 62.8265 63.8794 62.5335 65.4313 61.8918C64.4809 63.4944 63.1975 64.8686 61.67 65.9193C60.1425 66.9699 58.4075 67.6718 56.5853 67.9762C56.3843 68.009 56.1916 68.0815 56.0183 68.1896C55.845 68.2977 55.6944 68.4393 55.5751 68.6063C55.4559 68.7733 55.3703 68.9624 55.3233 69.1629C55.2762 69.3633 55.2687 69.5712 55.3011 69.7746C55.3334 69.978 55.4051 70.173 55.5119 70.3484C55.6187 70.5238 55.7586 70.6762 55.9237 70.7968C56.0887 70.9175 56.2756 71.0041 56.4737 71.0517C56.6718 71.0993 56.8772 71.1069 57.0782 71.0742C58.3472 70.866 59.5861 70.5009 60.7672 69.9872C61.4461 71.1526 61.9887 72.3933 62.3855 73.6858C62.4676 73.9305 62.5095 74.1878 62.5079 74.445C62.5074 74.9364 62.3644 75.4168 62.0966 75.8267C61.8288 76.2366 61.4479 76.5579 61.0013 76.7508C60.4918 76.9538 59.9316 76.9872 59.402 76.8462C58.8724 76.7051 58.401 76.397 58.0562 75.9665C56.6006 74.2389 54.6953 72.9591 52.5568 72.2725C48.0415 70.7416 46.3349 69.344 45.6591 67.5057C46.8082 67.3896 47.9438 67.1633 49.0506 66.8296C49.4436 66.7073 49.7725 66.432 49.9649 66.0643C50.1574 65.6966 50.1976 65.2666 50.0767 64.8689C49.9558 64.4712 49.6838 64.1384 49.3205 63.9437C48.9571 63.7489 48.5322 63.7082 48.1392 63.8305C47.0263 64.1756 45.8761 64.3905 44.7152 64.4689C42.4692 64.6487 40.2126 64.303 38.1198 63.4588C37.8189 63.3557 37.4951 63.3422 37.1869 63.4197C36.8786 63.4973 36.5988 63.6627 36.3807 63.8964C35.3869 65.0678 34.1048 65.9526 32.6643 66.4612C31.2239 66.9697 29.6761 67.0839 28.178 66.7922C26.6798 66.5005 25.2845 65.8132 24.1333 64.8C22.9822 63.7869 22.1161 62.4838 21.6229 61.0228V61.0056L21.6151 60.993C21.2031 59.7823 21.0578 58.495 21.1895 57.2214C21.3213 55.9479 21.7268 54.7189 22.3777 53.6208C22.5905 53.2636 22.6543 52.8356 22.5552 52.4308C22.4561 52.0261 22.2021 51.6777 21.8492 51.4624C21.4963 51.2471 21.0733 51.1826 20.6733 51.2829C20.2733 51.3832 19.9291 51.6402 19.7164 51.9973C19.2147 52.8505 18.8215 53.7644 18.5461 54.7172C18.4918 54.7172 18.4391 54.7423 18.3911 54.7423C17.5258 54.7381 16.6975 54.3872 16.0874 53.7663C15.4773 53.1454 15.1352 52.3051 15.136 51.4295V51.3809C15.1356 51.1762 15.0951 50.9736 15.0167 50.7849C14.9384 50.5961 14.8238 50.425 14.6796 50.2814C14.5355 50.1379 14.3645 50.0247 14.1768 49.9485C13.9891 49.8722 13.7883 49.8345 13.586 49.8374C13.1725 49.8428 12.7778 50.013 12.4876 50.3111C12.1974 50.6091 12.0351 51.011 12.036 51.4295C12.0378 53.0771 12.6645 54.6612 13.7867 55.8549C14.9089 57.0486 16.4411 57.7609 18.0671 57.8449C18.0671 57.9437 18.0485 58.041 18.0485 58.1398C18.0485 58.9272 18.126 59.7115 18.2779 60.4832C16.0209 61.0425 13.6532 60.9414 11.4508 60.1916C9.24834 59.4418 7.30172 58.0742 5.83764 56.2481C4.37357 54.422 3.4523 52.2126 3.18113 49.8771C2.90997 47.5416 3.30006 45.1763 4.30599 43.0565C4.8144 43.6526 5.41116 44.1686 6.07457 44.5811C6.42667 44.796 6.8487 44.8605 7.24781 44.7605C7.44543 44.711 7.63148 44.6226 7.79533 44.5003C7.95918 44.378 8.09762 44.2243 8.20275 44.0478C8.30789 43.8714 8.37766 43.6758 8.40807 43.472C8.43848 43.2683 8.42895 43.0606 8.38001 42.8606C8.33108 42.6606 8.24369 42.4723 8.12286 42.3065C8.00202 42.1407 7.85009 42.0006 7.67575 41.8942C6.77692 41.344 6.09689 40.4927 5.75371 39.488C5.3981 38.4701 5.4152 37.3568 5.8019 36.3505C6.18861 35.3442 6.91926 34.5117 7.86106 34.0043C8.80286 33.4969 9.89329 33.3483 10.9342 33.5855C11.9751 33.8227 12.8973 34.4299 13.5333 35.2968C13.7785 35.6309 14.1448 35.8527 14.5516 35.9134C14.9585 35.9742 15.3724 35.8689 15.7026 35.6207C16.0327 35.3726 16.2518 35.0019 16.3119 34.5902C16.3719 34.1785 16.2679 33.7596 16.0226 33.4255C15.368 32.5278 14.5251 31.7878 13.5545 31.2587C12.5838 30.7296 11.5094 30.4245 10.4084 30.3653C10.5176 29.5109 10.8008 28.6887 11.2401 27.9507C11.6794 27.2128 12.2653 26.5751 12.9607 26.0781C13.6561 25.5811 14.4458 25.2356 15.28 25.0634C16.1141 24.8912 16.9745 24.896 17.8067 25.0776C17.5866 25.6157 17.4037 26.1678 17.258 26.7309C17.1982 26.9331 17.1793 27.1453 17.2025 27.355C17.2257 27.5647 17.2904 27.7675 17.3928 27.9513C17.4953 28.1351 17.6333 28.2961 17.7986 28.4246C17.964 28.5532 18.1533 28.6466 18.3551 28.6994C18.557 28.7522 18.7673 28.7633 18.9735 28.7319C19.1797 28.7005 19.3775 28.6273 19.5551 28.5167C19.7327 28.4062 19.8864 28.2605 20.0071 28.0884C20.1278 27.9163 20.2129 27.7213 20.2573 27.5152C20.6502 25.959 21.4106 24.5227 22.4732 23.3295C23.5357 22.1364 24.8686 21.2221 26.3574 20.6653C27.8461 20.1085 29.4462 19.9258 31.0201 20.1329C32.5941 20.34 34.0948 20.9307 35.3933 21.8542C35.0564 22.7235 34.8809 23.6482 34.8756 24.582C34.8756 24.998 35.0389 25.397 35.3296 25.6911C35.6203 25.9853 36.0145 26.1505 36.4256 26.1505C36.8367 26.1505 37.231 25.9853 37.5217 25.6911C37.8124 25.397 37.9757 24.998 37.9757 24.582C37.9646 23.9818 38.0719 23.3853 38.2912 22.8275C38.5106 22.2698 38.8376 21.7618 39.2531 21.3334C39.6687 20.9049 40.1644 20.5646 40.7114 20.3323C41.2584 20.1 41.8457 19.9803 42.439 19.9803C43.0322 19.9803 43.6195 20.1 44.1665 20.3323C44.7135 20.5646 45.2093 20.9049 45.6248 21.3334C46.0404 21.7618 46.3674 22.2698 46.5867 22.8275C46.806 23.3853 46.9133 23.9818 46.9023 24.582C46.9023 24.998 47.0656 25.397 47.3562 25.6911C47.6469 25.9853 48.0412 26.1505 48.4523 26.1505C48.8634 26.1505 49.2576 25.9853 49.5483 25.6911C49.839 25.397 50.0023 24.998 50.0023 24.582C49.9896 24.2946 49.9612 24.0082 49.9171 23.724C52.8488 23.8025 55.6676 24.8844 57.9133 26.7932C60.159 28.7019 61.6989 31.3247 62.2816 34.2333C61.293 34.4713 60.3627 34.9106 59.5474 35.5243C59.2185 35.7739 59.0011 36.1455 58.9429 36.5573C58.8848 36.9691 58.9907 37.3874 59.2374 37.7203C59.484 38.0531 59.8512 38.2731 60.2582 38.3319C60.6651 38.3907 61.0785 38.2836 61.4074 38.034C62.0709 37.5286 62.8607 37.2208 63.6877 37.1452C64.5147 37.0696 65.3462 37.2292 66.0885 37.606C66.8308 37.9828 67.4543 38.5618 67.8889 39.2779C68.3235 39.9939 68.5519 40.8186 68.5484 41.6589L68.5499 41.6683Z" fill="black"/>
</svg>
