<svg width="93" height="86" viewBox="0 0 93 86" fill="none" xmlns="http://www.w3.org/2000/svg">
<path d="M88.7727 56.0439H4.22732C1.90232 56.0439 0 54.1188 0 51.766V4.7091C0 2.35626 1.90232 0.431152 4.22732 0.431152H88.7729C91.0979 0.431152 93.0002 2.35626 93.0002 4.7091V51.766C93 54.1188 91.0977 56.0439 88.7727 56.0439Z" fill="#0E9347"/>
<path d="M78.2044 38.9324C73.343 38.9324 68.9044 41.2852 66.368 45.1352C64.2544 44.066 61.9294 43.2103 59.1818 43.2103C51.7841 43.2103 45.6544 48.7717 44.5977 56.044H88.7727C90.8862 56.044 92.5771 54.5468 93 52.4077C92.1544 44.9215 85.8136 38.9324 78.2044 38.9324Z" fill="#0D8944"/>
<path d="M80.3182 51.7659H12.6818C12.6818 47.0602 8.8773 43.2102 4.22729 43.2102V13.2649C8.8773 13.2649 12.6818 9.41492 12.6818 4.70923H80.3182C80.3182 9.41492 84.1227 13.2649 88.7727 13.2649V43.2102C84.1227 43.2102 80.3182 47.0602 80.3182 51.7659Z" fill="#3BB54A"/>
<path d="M78.2044 38.9324C73.343 38.9324 68.9044 41.2852 66.368 45.1352C64.2544 44.066 61.9294 43.2103 59.1817 43.2103C53.2635 43.2103 48.1908 46.6326 45.8658 51.766H80.3182C80.3182 47.0603 83.9114 43.4241 88.5614 43.2103C85.8135 40.6435 82.2205 38.9324 78.2044 38.9324Z" fill="#0E9347"/>
<path d="M46.5001 47.488C55.8387 47.488 63.4092 38.8693 63.4092 28.2376C63.4092 17.6058 55.8387 8.98706 46.5001 8.98706C37.1614 8.98706 29.5909 17.6058 29.5909 28.2376C29.5909 38.8693 37.1614 47.488 46.5001 47.488Z" fill="#0E9347"/>
<path d="M21.1364 32.5155C23.4711 32.5155 25.3637 30.6002 25.3637 28.2375C25.3637 25.8749 23.4711 23.9596 21.1364 23.9596C18.8017 23.9596 16.9091 25.8749 16.9091 28.2375C16.9091 30.6002 18.8017 32.5155 21.1364 32.5155Z" fill="#0E9347"/>
<path d="M71.8635 32.5155C74.1982 32.5155 76.0909 30.6002 76.0909 28.2375C76.0909 25.8749 74.1982 23.9596 71.8635 23.9596C69.5289 23.9596 67.6362 25.8749 67.6362 28.2375C67.6362 30.6002 69.5289 32.5155 71.8635 32.5155Z" fill="#0E9347"/>
<path d="M48.6136 26.0987H44.3862C43.118 26.0987 42.2727 25.243 42.2727 23.9598C42.2727 22.6764 43.1182 21.8209 44.3862 21.8209H50.7271C51.9954 21.8209 52.8407 20.9653 52.8407 19.6821C52.8407 18.3987 51.9952 17.5432 50.7271 17.5432H48.6136C48.6136 16.2598 47.768 15.4043 46.5 15.4043C45.2318 15.4043 44.3864 16.26 44.3864 17.5432C40.7932 17.5432 38.0455 20.3238 38.0455 23.96C38.0455 27.5963 40.7932 30.3768 44.3864 30.3768H48.6137C49.882 30.3768 50.7273 31.2325 50.7273 32.5157C50.7273 33.7991 49.8818 34.6546 48.6137 34.6546H42.2729C41.0046 34.6546 40.1593 35.5103 40.1593 36.7935C40.1593 38.0769 41.0048 38.9324 42.2729 38.9324H44.3864C44.3864 40.2158 45.232 41.0713 46.5 41.0713C47.7682 41.0713 48.6136 40.2156 48.6136 38.9324C52.2068 38.9324 54.9545 36.1518 54.9545 32.5155C54.9545 28.8793 52.2068 26.0987 48.6136 26.0987Z" fill="#89C763"/>
<path d="M54.9545 73.1558C63.1258 73.1558 69.75 66.4523 69.75 58.1831C69.75 49.9138 63.1258 43.2103 54.9545 43.2103C46.7831 43.2103 40.1589 49.9138 40.1589 58.1831C40.1589 66.4523 46.7831 73.1558 54.9545 73.1558Z" fill="#FFCA5D"/>
<path d="M73.9773 68.8778C82.1487 68.8778 88.7728 62.1743 88.7728 53.9051C88.7728 45.6359 82.1487 38.9324 73.9773 38.9324C65.806 38.9324 59.1818 45.6359 59.1818 53.9051C59.1818 62.1743 65.806 68.8778 73.9773 68.8778Z" fill="#F6B545"/>
<path d="M73.9773 38.9324C65.7341 38.9324 59.1818 45.5632 59.1818 53.9051C59.1818 62.247 65.7341 68.8778 73.9773 68.8778C82.2205 68.8778 88.7728 62.247 88.7728 53.9051C88.7728 45.5632 82.2205 38.9324 73.9773 38.9324ZM73.9773 64.5999C68.0591 64.5999 63.4091 59.8942 63.4091 53.9051C63.4091 47.916 68.0591 43.2103 73.9773 43.2103C79.8955 43.2103 84.5455 47.916 84.5455 53.9051C84.5455 59.8942 79.8955 64.5999 73.9773 64.5999Z" fill="#FFCB5B"/>
<path d="M73.9773 68.6638C82.2205 68.8778 88.7728 62.033 88.7728 53.905H88.5614C87.5046 53.905 86.6591 54.7607 86.4478 55.8301C86.0252 58.8247 84.5455 61.6053 82.432 63.5304C80.7411 65.2415 78.4161 66.311 75.8796 66.7387C75.6295 66.7376 75.3817 66.7867 75.1504 66.8831C74.9192 66.9795 74.709 67.1212 74.5322 67.3002C74.3553 67.4792 74.2152 67.6918 74.12 67.9259C74.0248 68.1599 73.9763 68.4107 73.9773 68.6638Z" fill="#F6B545"/>
<path d="M73.9773 39.1462C65.7341 38.9323 59.1818 45.777 59.1818 53.905H59.3932C60.45 53.905 61.2955 53.0493 61.5068 51.9799C61.9294 48.9854 63.4091 46.2048 65.5227 44.2797C67.2135 42.5685 69.5385 41.4991 72.075 41.0712C72.3251 41.0723 72.5729 41.0232 72.8042 40.9269C73.0355 40.8305 73.2456 40.6888 73.4225 40.5098C73.5993 40.3309 73.7394 40.1182 73.8346 39.8842C73.9299 39.6501 73.9784 39.3993 73.9773 39.1462Z" fill="#FFE27A"/>
<path d="M64.8885 55.4023C64.8885 49.4132 69.5385 44.7075 75.4567 44.7075C77.9932 44.7075 80.3182 45.5632 82.2203 47.2743C80.1067 44.7075 77.3591 43.2103 73.9773 43.2103C68.0591 43.2103 63.4091 47.916 63.4091 53.9051C63.4091 57.3274 64.8885 60.108 67.2135 62.0331C65.7341 60.3219 64.8885 57.9691 64.8885 55.4023Z" fill="#F19920"/>
<path d="M80.3182 60.5358C80.1068 60.5358 79.8955 60.5358 79.6841 60.3218C79.2614 59.8941 79.2614 59.2524 79.6841 58.8247C80.9523 57.5413 81.5864 55.6162 81.5864 53.905C81.5864 53.2633 82.0091 52.8356 82.6432 52.8356C83.2773 52.8356 83.7 53.2633 83.7 53.905C83.7 56.2579 82.8544 58.6107 81.375 60.3218C80.9523 60.5358 80.5294 60.5358 80.3182 60.5358Z" fill="#FFCB5B"/>
<path d="M73.9773 60.3219C72.7091 60.3219 71.8638 59.4662 71.8638 58.183V49.6273C71.8638 48.3439 72.7093 47.4884 73.9773 47.4884C75.2454 47.4884 76.0909 48.3441 76.0909 49.6273V58.183C76.0909 59.4662 75.2456 60.3219 73.9773 60.3219Z" fill="#F19920"/>
<path d="M81.7977 66.5248C80.3182 61.1774 76.5136 56.8995 71.6522 54.9745C70.8066 50.0549 67.6363 45.7771 63.6204 43.2103C61.084 45.9909 59.3931 49.6272 59.3931 53.6911C59.3931 62.0331 65.9454 68.6639 74.1886 68.6639C76.9365 68.8777 79.4727 68.0222 81.7977 66.5248Z" fill="#F19920"/>
<path d="M67.2136 62.0331C65.7341 60.108 64.6771 57.7551 64.6771 55.1885C64.676 53.7368 64.9764 52.3011 65.559 50.9745C66.1416 49.648 66.9934 48.4602 68.0589 47.4883C67.6363 46.8466 67.2134 46.4188 66.7907 45.9911C64.6772 47.9162 63.4089 50.6968 63.4089 53.9053C63.4091 57.3274 64.8886 60.108 67.2136 62.0331ZM71.8636 55.1885V58.183C71.8636 59.4665 72.7091 60.3219 73.9772 60.3219C75.2452 60.3219 76.0907 59.4663 76.0907 58.183V57.7553C74.8227 56.6857 73.3432 55.8302 71.8636 55.1885Z" fill="#E78825"/>
<path d="M81.7977 66.5247C81.375 65.0275 80.9521 63.7441 80.1068 62.4607C78.4159 63.7441 76.3023 64.5996 73.9773 64.5996C68.0591 64.5996 63.4091 59.8939 63.4091 53.9048C63.4091 50.6963 64.6773 47.9157 66.7909 45.9906C65.7341 44.9212 64.6773 44.0655 63.4091 43.4238C60.8727 46.2044 59.1818 49.8407 59.1818 53.9046C59.1818 62.2466 65.7341 68.8774 73.9773 68.8774C76.9364 68.8776 79.4727 68.0221 81.7977 66.5247Z" fill="#F6B545"/>
<path d="M81.1636 64.5999C79.6841 65.6693 77.7818 66.311 75.8795 66.7387C74.8227 66.9527 73.9772 67.8082 73.9772 68.8776C76.9363 68.8776 79.4727 68.022 81.7977 66.5248L81.1636 64.5999Z" fill="#F19920"/>
<path d="M63.4091 43.4242C60.8727 46.2048 59.1818 49.841 59.1818 53.905H59.3932C60.45 53.905 61.2955 53.0494 61.5068 51.9799C61.9294 48.9854 63.4091 46.4186 65.3112 44.4936C64.6773 44.2797 64.0432 43.8519 63.4091 43.4242Z" fill="#FFCB5B"/>
<path d="M54.9545 73.1558C63.1258 73.1558 69.75 66.4523 69.75 58.1831C69.75 49.9138 63.1258 43.2103 54.9545 43.2103C46.7831 43.2103 40.1589 49.9138 40.1589 58.1831C40.1589 66.4523 46.7831 73.1558 54.9545 73.1558Z" fill="#F6B545"/>
<path d="M52.8409 68.8776C52.8409 70.3748 53.0524 71.6582 53.475 73.1556H54.9545C63.1977 73.1556 69.7501 66.5248 69.7501 58.1829C69.7501 56.6857 69.5386 55.4023 69.1159 53.9049H67.6365C59.3933 53.9051 52.8409 60.5359 52.8409 68.8776Z" fill="#F19920"/>
<path d="M54.9545 43.2103C46.7113 43.2103 40.1589 49.8411 40.1589 58.1831C40.1589 66.525 46.7113 73.1558 54.9545 73.1558C63.1977 73.1558 69.75 66.5248 69.75 58.1831C69.75 49.8413 63.1977 43.2103 54.9545 43.2103ZM54.9545 68.8776C49.0363 68.8776 44.3863 64.172 44.3863 58.1829C44.3863 52.1938 49.0363 47.4881 54.9545 47.4881C60.8727 47.4881 65.5227 52.1938 65.5227 58.1829C65.5227 64.172 60.8727 68.8776 54.9545 68.8776Z" fill="#FFCB5B"/>
<path d="M54.9545 72.9416C63.1977 73.1555 69.75 66.311 69.75 58.183H69.5386C68.4818 58.183 67.6363 59.0387 67.425 60.1081C67.0023 63.1026 65.5227 65.8832 63.4091 67.8083C61.7182 69.5195 59.3932 70.5889 56.8568 71.0168C56.6067 71.0157 56.3589 71.0648 56.1276 71.1611C55.8964 71.2574 55.6862 71.3992 55.5094 71.5781C55.3325 71.7571 55.1924 71.9697 55.0972 72.2037C55.0019 72.4377 54.9535 72.6885 54.9545 72.9416Z" fill="#F6B545"/>
<path d="M54.9545 43.4242C46.7113 43.2102 40.1589 50.055 40.1589 58.183H40.3704C41.4272 58.183 42.2727 57.3273 42.4839 56.2579C42.9066 53.2633 44.3863 50.4827 46.4998 48.5576C48.1907 46.8465 50.5157 45.777 53.0521 45.3491C53.3023 45.3502 53.5501 45.3012 53.7814 45.2048C54.0126 45.1085 54.2228 44.9667 54.3996 44.7878C54.5765 44.6088 54.7166 44.3962 54.8118 44.1621C54.907 43.9281 54.9555 43.6773 54.9545 43.4242Z" fill="#FFE27A"/>
<path d="M45.8659 59.6802C45.8659 53.6911 50.5159 48.9855 56.4341 48.9855C58.9705 48.9855 61.2955 49.8411 63.1977 51.5523C61.0841 48.9855 58.3362 47.4883 54.9544 47.4883C49.0362 47.4883 44.3862 52.194 44.3862 58.1831C44.3862 61.6053 45.8657 64.3859 48.1907 66.311C46.7114 64.5999 45.8659 62.247 45.8659 59.6802Z" fill="#F19920"/>
<path d="M61.2956 64.8136C61.0842 64.8136 60.8729 64.8136 60.6615 64.5997C60.2388 64.1719 60.2388 63.5302 60.6615 63.1025C61.9297 61.8191 62.5638 59.894 62.5638 58.1828C62.5638 57.5411 62.9865 57.1134 63.6206 57.1134C64.2547 57.1134 64.6774 57.5411 64.6774 58.1828C64.6774 60.5357 63.8319 62.8885 62.3524 64.5997C61.9295 64.8136 61.5068 64.8136 61.2956 64.8136Z" fill="#FFCB5B"/>
<path d="M54.9545 64.5998C53.6863 64.5998 52.8409 63.7442 52.8409 62.461V53.9052C52.8409 52.6218 53.6865 51.7664 54.9545 51.7664C56.2227 51.7664 57.0681 52.622 57.0681 53.9052V62.461C57.0683 63.7442 56.2227 64.5998 54.9545 64.5998Z" fill="#F19920"/>
<path d="M64.6773 54.1189C65.1 55.4023 65.5228 56.6857 65.5228 58.1829C65.5228 64.1719 60.8728 68.8776 54.9546 68.8776C54.3205 68.8776 53.4752 68.8776 52.8411 68.6637V68.8776C52.8411 70.3748 53.0525 71.6582 53.4752 73.1556H54.9546C63.1978 73.1556 69.7502 66.5248 69.7502 58.1829C69.7502 56.6857 69.5387 55.4023 69.1161 53.9049H67.6366C66.5795 53.9051 65.7341 53.9051 64.6773 54.1189Z" fill="#F6B545"/>
<path d="M65.5227 85.9894C73.6941 85.9894 80.3182 79.2859 80.3182 71.0167C80.3182 62.7475 73.6941 56.0439 65.5227 56.0439C57.3514 56.0439 50.7272 62.7475 50.7272 71.0167C50.7272 79.2859 57.3514 85.9894 65.5227 85.9894Z" fill="#F6B545"/>
<path d="M65.5227 56.0439C57.2795 56.0439 50.7272 62.6747 50.7272 71.0167C50.7272 79.3586 57.2795 85.9894 65.5227 85.9894C73.7659 85.9894 80.3182 79.3586 80.3182 71.0167C80.3182 62.6747 73.7659 56.0439 65.5227 56.0439ZM65.5227 81.7115C59.6045 81.7115 54.9545 77.0058 54.9545 71.0167C54.9545 65.0276 59.6045 60.3219 65.5227 60.3219C71.4409 60.3219 76.0909 65.0276 76.0909 71.0167C76.0909 77.0058 71.4409 81.7115 65.5227 81.7115Z" fill="#FFCB5B"/>
<path d="M65.5227 85.7755C73.7659 85.9895 80.3183 79.1447 80.3183 71.0167H80.1068C79.05 71.0167 78.2045 71.8724 77.9933 72.9418C77.5706 75.9364 76.0909 78.717 73.9774 80.6421C72.2865 82.3532 69.9615 83.4226 67.425 83.8506C67.1749 83.8495 66.9271 83.8985 66.6958 83.9949C66.4645 84.0912 66.2544 84.233 66.0776 84.4119C65.9007 84.5909 65.7606 84.8035 65.6654 85.0375C65.5701 85.2716 65.5217 85.5224 65.5227 85.7755Z" fill="#F6B545"/>
<path d="M65.5227 56.2579C57.2795 56.044 50.7272 62.8887 50.7272 71.0167H50.9386C51.9954 71.0167 52.8409 70.161 53.0522 69.0916C53.4748 66.0971 54.9545 63.3165 57.0681 61.3914C58.759 59.6802 61.084 58.6108 63.6204 58.1829C63.8705 58.184 64.1183 58.1349 64.3496 58.0386C64.5809 57.9422 64.791 57.8005 64.9679 57.6215C65.1447 57.4425 65.2848 57.2299 65.3801 56.9959C65.4753 56.7618 65.5238 56.511 65.5227 56.2579Z" fill="#FFE27A"/>
<path d="M56.4341 72.5139C56.4341 66.5248 61.0841 61.8191 67.0023 61.8191C69.5388 61.8191 71.8638 62.6747 73.7659 64.3859C71.6523 61.8191 68.9045 60.3219 65.5227 60.3219C59.6045 60.3219 54.9545 65.0276 54.9545 71.0167C54.9545 74.439 56.4339 77.2195 58.7589 79.1447C57.2795 77.4335 56.4341 75.0807 56.4341 72.5139Z" fill="#F19920"/>
<path d="M71.8636 77.6473C71.6522 77.6473 71.4409 77.6473 71.2295 77.4333C70.8068 77.0056 70.8068 76.3639 71.2295 75.9361C72.4977 74.6527 73.1318 72.7276 73.1318 71.0165C73.1318 70.3748 73.5545 69.947 74.1886 69.947C74.8227 69.947 75.2454 70.3748 75.2454 71.0165C75.2454 73.3693 74.3998 75.7221 72.9204 77.4333C72.4977 77.6473 72.075 77.6473 71.8636 77.6473Z" fill="#FFCB5B"/>
<path d="M65.5226 77.4335C64.2544 77.4335 63.4091 76.5778 63.4091 75.2946V66.7387C63.4091 65.4553 64.2546 64.5999 65.5226 64.5999C66.7908 64.5999 67.6362 65.4555 67.6362 66.7387V75.2944C67.6364 76.5779 66.7908 77.4335 65.5226 77.4335Z" fill="#F19920"/>
</svg>
