<svg width="70" height="95" viewBox="0 0 70 95" fill="none" xmlns="http://www.w3.org/2000/svg">
<path d="M63.0778 12.4442H60.4885L34.6181 16.2315L8.74761 12.4442H5.78453C2.58978 12.4442 1.0139e-08 9.82338 1.0139e-08 6.59037C-0.000187113 3.35737 2.58978 0.736572 5.78453 0.736572H63.0778C66.2725 0.736572 68.8623 3.35737 68.8623 6.59037C68.8625 9.82338 66.2725 12.4442 63.0778 12.4442Z" fill="#B98080"/>
<path d="M63.4521 0.736572H57.8384C61.0331 0.736572 63.6229 3.35737 63.6229 6.59037C63.6229 9.82338 61.0331 12.4442 57.8384 12.4442H63.4521C66.6468 12.4442 69.2366 9.82338 69.2366 6.59037C69.2368 3.35737 66.6468 0.736572 63.4521 0.736572Z" fill="#AE6C6C"/>
<path d="M60.1145 19.7929V12.4442H8.7478V19.7929C8.7478 31.1925 15.9479 40.8891 25.997 44.4825C26.6736 44.7245 27.2594 45.1728 27.6737 45.7658C28.0881 46.3587 28.3106 47.0671 28.3106 47.7933C28.3106 48.5195 28.0881 49.2279 27.6737 49.8208C27.2594 50.4138 26.6736 50.8621 25.997 51.1041C15.9481 54.6975 8.7478 64.3941 8.7478 75.7938V83.1424H60.1143V75.7938C60.1143 64.3941 52.9142 54.6975 42.8651 51.1041C42.1884 50.8623 41.6024 50.414 41.1879 49.821C40.7735 49.228 40.5509 48.5196 40.5508 47.7933H40.9251C40.9251 46.3047 41.4782 44.9784 42.8651 44.4825C52.9142 40.8893 60.1145 31.1925 60.1145 19.7929Z" fill="#EFEDEF"/>
<path d="M8.7478 12.4442V16.1556H51.2808C53.2658 16.1556 54.8751 17.7841 54.8751 19.7929C54.8751 31.1571 47.7195 40.8289 37.7195 44.4488C36.4822 44.8966 35.5357 45.9656 35.348 47.2816C35.2311 48.0872 35.3944 48.9089 35.8099 49.6061C36.2253 50.3034 36.8673 50.8329 37.6259 51.1041C47.6748 54.6975 54.8751 64.3943 54.8751 75.7938V83.1424H60.4887V75.7938C60.4887 64.4295 53.3332 54.7577 43.3331 51.1379C42.0959 50.69 41.1494 49.621 40.9617 48.305C40.8448 47.4994 41.008 46.6777 41.4235 45.9805C41.839 45.2833 42.481 44.7537 43.2396 44.4825C53.2884 40.8891 60.4887 31.1924 60.4887 19.7929V12.4442H8.7478Z" fill="#D7D0D6"/>
<path d="M63.0778 94.8503H5.78453C2.58978 94.8503 0 92.2296 0 88.9965C0 85.7635 2.58978 83.1427 5.78453 83.1427H8.74799L34.6185 79.3555L60.4889 83.1427H63.0781C66.2729 83.1427 68.8627 85.7635 68.8627 88.9965C68.8625 92.2296 66.2725 94.8503 63.0778 94.8503Z" fill="#B98080"/>
<path d="M63.4521 83.1427H57.8384C61.0331 83.1427 63.6229 85.7635 63.6229 88.9965C63.6229 92.2295 61.0331 94.8503 57.8384 94.8503H63.4521C66.6468 94.8503 69.2366 92.2295 69.2366 88.9965C69.2368 85.7635 66.6468 83.1427 63.4521 83.1427Z" fill="#AE6C6C"/>
<path d="M47.076 62.6049H44.3513C41.6113 62.6049 38.8993 60.599 38.4512 57.8636L37.3395 51.0782C36.7736 47.6246 39.4061 44.4826 42.8654 44.4826C49.5784 42.0823 55.016 36.9558 57.8893 30.4199H10.9731C13.8462 36.956 19.284 42.0823 25.997 44.4826C29.4564 44.4826 32.0888 47.6246 31.5229 51.0782L30.4112 57.8636C29.9631 60.599 27.6252 62.6049 24.8853 62.6049H21.7864C14.6432 62.6049 8.78697 68.4212 8.74842 75.6498L8.74805 75.7941V83.1428H60.1146V75.7941L60.1142 75.6498C60.0754 68.4212 54.2193 62.6049 47.076 62.6049Z" fill="#FED402"/>
<path d="M60.4884 75.6498C60.4497 68.4212 54.5937 62.6049 47.4504 62.6049H44.3513C41.6113 62.6049 39.2735 60.599 38.8254 57.8636L37.7137 51.0782C37.1478 47.6246 39.7803 44.4826 43.2396 44.4826C49.9526 42.0823 55.3902 36.9558 58.2635 30.4199H52.6498C49.7767 36.956 44.339 42.0823 37.6259 44.4826C34.1666 44.4826 31.5341 47.6246 32.1 51.0782L33.2117 57.8636C33.6599 60.599 35.9978 62.6049 38.7376 62.6049H41.8367C48.98 62.6049 54.8362 68.4212 54.8747 75.6498L54.8751 75.7941V83.1428H60.4888V75.7941L60.4884 75.6498Z" fill="#FAC600"/>
</svg>
