<svg width="81" height="71" viewBox="0 0 81 71" fill="none" xmlns="http://www.w3.org/2000/svg">
<path d="M73.8219 13.8281H6.91406C3.09566 13.8281 0 10.7325 0 6.91406C0 3.09565 3.09566 0 6.91406 0H73.8219C77.6403 0 80.736 3.09565 80.736 6.91406C80.736 10.7325 77.6403 13.8281 73.8219 13.8281Z" fill="#059571"/>
<path d="M2.76464 7.83496C2.5825 7.83496 2.40445 7.781 2.25295 7.67991C2.10145 7.57881 1.98329 7.43511 1.91339 7.26693C1.84348 7.09875 1.82495 6.91363 1.86015 6.73493C1.89535 6.55623 1.9827 6.39196 2.11116 6.26285C2.23963 6.13374 2.40346 6.04558 2.58198 6.00949C2.7605 5.9734 2.94571 5.991 3.11424 6.06007C3.28277 6.12914 3.42706 6.24658 3.52891 6.39757C3.63076 6.54857 3.6856 6.72635 3.68651 6.90848V6.91308C3.68651 7.15758 3.58939 7.39206 3.4165 7.56495C3.24362 7.73783 3.00913 7.83496 2.76464 7.83496ZM4.29956 4.61762C4.023 4.61762 3.76026 4.49316 3.58511 4.27652C3.26245 3.88012 3.32237 3.29933 3.71878 2.98129C4.61761 2.2484 5.75151 1.84277 6.91307 1.84277H69.0659C69.3104 1.84277 69.5449 1.9399 69.7177 2.11278C69.8906 2.28567 69.9878 2.52015 69.9878 2.76465C69.9878 3.27629 69.5775 3.68652 69.0659 3.68652H6.91307C6.17187 3.68351 5.45289 3.93948 4.88034 4.4102C4.71901 4.54387 4.51159 4.61762 4.29956 4.61762Z" fill="#22C79D"/>
<path d="M75.8302 0.296387C76.0229 0.93202 76.1266 1.60637 76.1266 2.30469C76.1266 6.1231 73.0309 9.21875 69.2125 9.21875H2.30469C1.60637 9.21875 0.932019 9.11504 0.296387 8.92237C1.15696 11.7613 3.79398 13.8281 6.91407 13.8281H73.8219C77.6403 13.8281 80.736 10.7325 80.736 6.91407C80.736 3.79398 78.6691 1.1565 75.8302 0.296387Z" fill="#4C10AD"/>
<path d="M73.8219 42.2949H6.91406C3.09566 42.2949 0 39.1993 0 35.3809C0 31.5625 3.09566 28.4668 6.91406 28.4668H73.8219C77.6403 28.4668 80.736 31.5625 80.736 35.3809C80.736 39.1993 77.6403 42.2949 73.8219 42.2949Z" fill="#059571"/>
<path d="M75.8302 28.7632C76.0229 29.3988 76.1266 30.0732 76.1266 30.7715C76.1266 34.5899 73.0309 37.6856 69.2125 37.6856H2.30469C1.60637 37.6856 0.932019 37.5818 0.296387 37.3892C1.15696 40.2281 3.79398 42.2949 6.91407 42.2949H73.8219C77.6403 42.2949 80.736 39.1993 80.736 35.3809C80.736 32.2608 78.6691 29.6238 75.8302 28.7632Z" fill="#4C10AD"/>
<path d="M73.8219 70.7612H6.91406C3.09566 70.7612 0 67.6656 0 63.8472C0 60.0288 3.09566 56.9331 6.91406 56.9331H73.8219C77.6403 56.9331 80.736 60.0288 80.736 63.8472C80.736 67.6656 77.6403 70.7612 73.8219 70.7612Z" fill="#059571"/>
<path d="M75.8302 57.2295C76.0229 57.8651 76.1266 58.5395 76.1266 59.2378C76.1266 63.0562 73.0309 66.1519 69.2125 66.1519H2.30469C1.60637 66.1519 0.932019 66.0482 0.296387 65.8555C1.15696 68.6944 3.79398 70.7612 6.91407 70.7612H73.8219C77.6403 70.7612 80.736 67.6656 80.736 63.8472C80.736 60.7275 78.6691 58.0901 75.8302 57.2295Z" fill="#4C10AD"/>
<path d="M77.4213 57.9429C78.0837 59.0265 78.4333 60.2723 78.4313 61.5423C78.4313 65.3607 75.3356 68.4564 71.5172 68.4564H4.60935C3.29061 68.4564 2.05852 68.0872 1.00989 67.4465C2.22446 69.434 4.41437 70.7611 6.91404 70.7611H73.8219C77.6403 70.7611 80.7359 67.6654 80.7359 63.847C80.7359 61.3474 79.4089 59.1574 77.4213 57.9429Z" fill="#3B0E85"/>
<path d="M2.76464 36.835C2.5825 36.835 2.40445 36.781 2.25295 36.6799C2.10145 36.5788 1.98329 36.4351 1.91339 36.2669C1.84348 36.0987 1.82495 35.9136 1.86015 35.7349C1.89535 35.5562 1.9827 35.392 2.11116 35.2628C2.23963 35.1337 2.40346 35.0456 2.58198 35.0095C2.7605 34.9734 2.94571 34.991 3.11424 35.0601C3.28277 35.1291 3.42706 35.2466 3.52891 35.3976C3.63076 35.5486 3.6856 35.7263 3.68651 35.9085V35.9131C3.68651 36.1576 3.58939 36.3921 3.4165 36.5649C3.24362 36.7378 3.00913 36.835 2.76464 36.835ZM4.29956 33.6176C4.023 33.6176 3.76026 33.4932 3.58511 33.2765C3.26245 32.8801 3.32237 32.2993 3.71878 31.9813C4.61761 31.2484 5.75151 30.8428 6.91307 30.8428H69.0659C69.3104 30.8428 69.5449 30.9399 69.7177 31.1128C69.8906 31.2857 69.9878 31.5202 69.9878 31.7646C69.9878 32.2763 69.5775 32.6865 69.0659 32.6865H6.91307C6.17187 32.6835 5.45289 32.9395 4.88034 33.4102C4.71901 33.5439 4.51159 33.6176 4.29956 33.6176Z" fill="#22C79D"/>
<path d="M2.76464 64.835C2.5825 64.835 2.40445 64.781 2.25295 64.6799C2.10145 64.5788 1.98329 64.4351 1.91339 64.2669C1.84348 64.0987 1.82495 63.9136 1.86015 63.7349C1.89535 63.5562 1.9827 63.392 2.11116 63.2628C2.23963 63.1337 2.40346 63.0456 2.58198 63.0095C2.7605 62.9734 2.94571 62.991 3.11424 63.0601C3.28277 63.1291 3.42706 63.2466 3.52891 63.3976C3.63076 63.5486 3.6856 63.7263 3.68651 63.9085V63.9131C3.68651 64.1576 3.58939 64.3921 3.4165 64.5649C3.24362 64.7378 3.00913 64.835 2.76464 64.835ZM4.29956 61.6176C4.023 61.6176 3.76026 61.4932 3.58511 61.2765C3.26245 60.8801 3.32237 60.2993 3.71878 59.9813C4.61761 59.2484 5.75151 58.8428 6.91307 58.8428H69.0659C69.3104 58.8428 69.5449 58.9399 69.7177 59.1128C69.8906 59.2857 69.9878 59.5202 69.9878 59.7646C69.9878 60.2763 69.5775 60.6865 69.0659 60.6865H6.91307C6.17187 60.6835 5.45289 60.9395 4.88034 61.4102C4.71901 61.5439 4.51159 61.6176 4.29956 61.6176Z" fill="#22C79D"/>
</svg>
