<svg width="66" height="65" viewBox="0 0 66 65" fill="none" xmlns="http://www.w3.org/2000/svg">
<g filter="url(#filter0_d_111_21)">
<path d="M5.97222 62.6054C4.42771 62.6952 2.90867 62.1817 1.73542 61.1732C-0.578311 58.8457 -0.578311 55.0866 1.73542 52.7592L52.3986 2.09579C54.8051 -0.156044 58.5813 -0.0308659 60.8331 2.37562C62.8693 4.5518 62.988 7.89663 61.111 10.2115L10.1493 61.1732C8.99128 62.1672 7.49648 62.6797 5.97222 62.6054Z" fill="#4C10AD"/>
<path d="M56.5758 62.6054C55.0103 62.5988 53.5101 61.9773 52.3986 60.8749L1.73518 10.2114C-0.408369 7.70818 -0.116942 3.94105 2.38623 1.7973C4.62037 -0.115945 7.91529 -0.115945 10.1492 1.7973L61.1109 52.4607C63.5168 54.7131 63.6412 58.4895 61.3888 60.8954C61.2992 60.9911 61.2066 61.0836 61.1109 61.1732C60.4935 61.7101 59.7724 62.1142 58.9922 62.3606C58.212 62.607 57.3895 62.6903 56.5758 62.6054Z" fill="#4C10AD"/>
</g>
<path d="M60.065 5.23841C60.1938 5.11131 60.2877 4.95469 60.3349 4.78831C60.3821 4.62193 60.3805 4.45326 60.3302 4.30357C60.28 4.15388 60.1835 4.02989 60.0528 3.94724C59.922 3.86459 59.763 3.82699 59.5957 3.83918C59.4284 3.85137 59.2604 3.9128 59.1128 4.01573C58.9653 4.11866 58.8448 4.25847 58.7666 4.41752C58.6884 4.57656 58.6559 4.74772 58.6734 4.90938C58.6908 5.07105 58.7574 5.21598 58.8646 5.32589L58.8673 5.32865C59.0122 5.47534 59.2197 5.54824 59.4443 5.53132C59.6689 5.5144 59.8922 5.40903 60.065 5.23841ZM57.0743 4.37927C57.2698 4.18627 57.3818 3.92826 57.3773 3.67605C57.3706 3.21305 56.9842 2.90642 56.5156 2.99224C55.4462 3.17978 54.4044 3.72771 53.5834 4.53831L9.6516 47.9116C9.47879 48.0822 9.37058 48.3041 9.35078 48.5285C9.33099 48.7529 9.40123 48.9613 9.54605 49.108C9.84912 49.415 10.3821 49.3748 10.7437 49.0178L54.6755 5.64449C55.1976 5.12543 55.8574 4.77726 56.541 4.66012C56.7342 4.62774 56.9245 4.52724 57.0743 4.37927Z" fill="#713BC9"/>
<rect x="45.5415" y="11.9675" width="6" height="52.0393" transform="rotate(46.1709 45.5415 11.9675)" fill="#4C10AD"/>
<path d="M2.78521 5.888C2.64326 5.74835 2.54233 5.57337 2.49516 5.38514C2.44799 5.19692 2.45668 5.00388 2.52015 4.83039C2.58361 4.6569 2.699 4.51073 2.85176 4.41033C3.00452 4.30994 3.1878 4.25981 3.37846 4.26627C3.56913 4.27274 3.75864 4.33551 3.92308 4.44667C4.08753 4.55782 4.21953 4.71238 4.30243 4.89083C4.38534 5.06929 4.41543 5.26364 4.38892 5.44937C4.3624 5.6351 4.28046 5.80388 4.15343 5.93441L4.1502 5.93769C3.97873 6.11198 3.73859 6.20466 3.4826 6.19534C3.22662 6.18602 2.97576 6.07547 2.78521 5.888ZM6.23784 4.77142C6.0223 4.55937 5.90481 4.2692 5.92024 3.98047C5.94678 3.45049 6.40079 3.08243 6.93279 3.15965C8.14728 3.32639 9.31547 3.90666 10.2207 4.79728L58.66 52.4529C58.8506 52.6403 58.9652 52.8894 58.9787 53.1452C58.9922 53.401 58.9034 53.6426 58.732 53.8169C58.3731 54.1816 57.7657 54.1595 57.367 53.7672L8.92769 6.1116C8.35214 5.54114 7.61229 5.17232 6.83594 5.06887C6.61646 5.04046 6.40309 4.934 6.23784 4.77142Z" fill="#713BC9"/>
<circle cx="26" cy="33" r="1" fill="#713BC9"/>
<circle cx="7" cy="56" r="1" fill="#713BC9"/>
<rect x="9" y="58.2069" width="9" height="1" rx="0.5" transform="rotate(-43.6031 9 58.2069)" fill="#713BC9"/>
<defs>
<filter id="filter0_d_111_21" x="0.00012207" y="0.362366" width="65.9999" height="64.2753" filterUnits="userSpaceOnUse" color-interpolation-filters="sRGB">
<feFlood flood-opacity="0" result="BackgroundImageFix"/>
<feColorMatrix in="SourceAlpha" type="matrix" values="0 0 0 0 0 0 0 0 0 0 0 0 0 0 0 0 0 0 127 0" result="hardAlpha"/>
<feOffset dx="3" dy="2"/>
<feComposite in2="hardAlpha" operator="out"/>
<feColorMatrix type="matrix" values="0 0 0 0 0.175115 0 0 0 0 0.0463195 0 0 0 0 0.383333 0 0 0 1 0"/>
<feBlend mode="normal" in2="BackgroundImageFix" result="effect1_dropShadow_111_21"/>
<feBlend mode="normal" in="SourceGraphic" in2="effect1_dropShadow_111_21" result="shape"/>
</filter>
</defs>
</svg>
