<svg width="123" height="150" viewBox="0 0 123 150" fill="none" xmlns="http://www.w3.org/2000/svg">
<g filter="url(#filter0_d_48_62)">
<path d="M83.2006 61.5814L83.088 107.661C83.047 109.433 82.4428 110.662 81.4598 111.245L71.2915 117.154C72.2643 116.57 72.9196 115.352 72.9196 113.58L73.022 67.5001C73.063 63.9571 70.5337 59.6358 67.4719 57.8746L27.3721 34.7117C25.8259 33.8106 24.4127 33.7389 23.3785 34.3226L33.5366 28.4038C34.5811 27.8304 35.9942 27.8918 37.5404 28.8032L77.6403 51.9456C80.7123 53.7581 83.2313 58.0486 83.2006 61.5814Z" fill="#6411EB"/>
<path d="M67.4617 57.8642C70.5439 59.6459 73.0528 63.957 73.0425 67.4898L72.9094 113.58C72.8992 117.133 70.3801 118.536 67.2979 116.754L27.2083 93.612C24.126 91.8303 21.6275 87.5295 21.6377 83.9864L21.7606 37.8962C21.7708 34.3531 24.2899 32.94 27.3721 34.7218L67.4617 57.8642Z" fill="#4C10AD"/>
<path d="M43.7664 52.6929L43.7561 58.1918L43.0086 57.7617C42.1075 57.2497 41.36 57.0654 40.9094 57.4136C40.3872 57.6184 40.1619 58.3556 40.1516 59.3899L40.1312 66.5988C40.1312 68.1451 39.9059 69.1384 39.527 69.6094C39.0764 70.1214 38.4006 70.2545 37.4995 70.0702C38.3526 70.8573 39.0386 71.808 39.5168 72.8657C39.8854 73.859 40.1107 75.1083 40.1107 76.6545L40.0902 83.7816C40.0572 84.7923 40.3035 85.7926 40.8022 86.6724C41.3008 87.5522 42.0324 88.2775 42.9165 88.7684L43.6639 89.2088L43.6537 94.6257L41.3293 93.2843C39.086 92.0525 37.207 90.2512 35.8816 88.0619C34.623 85.9455 33.9811 83.5196 34.0281 81.0577L34.0486 72.9886L33.6083 71.0942L32.3385 69.8449L31.0688 69.1076L31.079 63.6088L32.3488 64.346L33.6288 64.5611L34.0793 63.2811L34.0998 55.1198C34.0998 52.5393 34.7142 50.9112 35.984 50.266C37.1923 49.58 39.056 49.9793 41.4521 51.3617L43.7664 52.6929ZM53.2691 58.1816C55.7267 59.6049 57.5289 61.3252 58.7987 63.4347C60.0582 65.5441 60.6419 67.8584 60.6419 70.4389L60.6214 78.6001L61.0617 80.4126L62.3315 81.6516L63.6013 82.3889L63.591 87.8878L62.3213 87.1505L61.0515 86.9457L60.5907 88.3076L60.5702 96.387C60.5702 98.9572 59.9558 100.585 58.6861 101.231C57.4061 101.876 55.6141 101.538 53.1462 100.104L50.8934 98.8036L50.9139 93.3969L51.6614 93.827C52.5625 94.339 53.2383 94.3902 53.7606 94.1752C54.2111 93.8372 54.5184 93.2331 54.5184 92.1272L54.5388 84.9899C54.5388 83.4436 54.6924 82.4094 55.1532 81.8872C55.5936 81.3752 56.1977 81.2113 57.1705 81.4264C56.3019 80.6532 55.6133 79.6989 55.1532 78.6308C54.6914 77.456 54.4921 76.1942 54.5696 74.9342L54.59 67.715C54.59 66.691 54.2829 65.6568 53.8425 64.8785C53.3485 64.011 52.626 63.2955 51.7536 62.8101L51.0061 62.38L51.0265 56.8811L53.2691 58.1816Z" fill="white"/>
</g>
<defs>
<filter id="filter0_d_48_62" x="0.637695" y="0.0332031" width="121.563" height="149.493" filterUnits="userSpaceOnUse" color-interpolation-filters="sRGB">
<feFlood flood-opacity="0" result="BackgroundImageFix"/>
<feColorMatrix in="SourceAlpha" type="matrix" values="0 0 0 0 0 0 0 0 0 0 0 0 0 0 0 0 0 0 127 0" result="hardAlpha"/>
<feOffset dx="9" dy="2"/>
<feGaussianBlur stdDeviation="15"/>
<feComposite in2="hardAlpha" operator="out"/>
<feColorMatrix type="matrix" values="0 0 0 0 0.298039 0 0 0 0 0.0627451 0 0 0 0 0.678431 0 0 0 1 0"/>
<feBlend mode="normal" in2="BackgroundImageFix" result="effect1_dropShadow_48_62"/>
<feBlend mode="normal" in="SourceGraphic" in2="effect1_dropShadow_48_62" result="shape"/>
</filter>
</defs>
</svg>
