<svg width="122" height="151" viewBox="0 0 122 151" fill="none" xmlns="http://www.w3.org/2000/svg">
<g filter="url(#filter0_d_48_66)">
<path d="M82.8435 62.4418L82.7411 108.522C82.7002 110.304 82.0858 111.522 81.113 112.106L70.9446 118.014C71.9174 117.441 72.5728 116.212 72.5728 114.441L72.6752 68.3605C72.7162 64.8277 70.1869 60.4962 67.1251 58.7349L27.0253 35.5823C25.479 34.6812 24.0659 34.6095 23.0317 35.1829L33.1898 29.2642C34.2342 28.6908 35.6474 28.7624 37.1936 29.6738L77.2934 52.8162C80.3654 54.6184 82.8845 58.909 82.8435 62.4418Z" fill="#2877E3"/>
<path d="M67.1149 58.7245C70.1971 60.5165 72.6957 64.8173 72.6957 68.3603L72.5626 114.44C72.5523 117.994 70.0333 119.407 66.951 117.615L26.8615 94.4723C23.7792 92.7008 21.2807 88.3897 21.2909 84.8467L21.4138 38.7667C21.424 35.2134 23.9431 33.8105 27.0253 35.5923L67.1149 58.7245Z" fill="#1658B1"/>
<path d="M34.4595 61.9812C35.7703 62.7389 36.9171 63.6298 37.9719 64.7665C38.9959 65.8724 39.897 67.1421 40.5831 68.5245L38.3712 69.61C37.5381 67.8985 36.2345 66.4599 34.6131 65.4628C33.878 64.9902 33.0289 64.7249 32.1555 64.6948C31.8106 64.707 31.4738 64.8028 31.1741 64.9741C30.8744 65.1453 30.6209 65.3868 30.4352 65.6778C30.0256 66.2922 29.8208 67.1114 29.8106 68.1457C29.8106 69.2311 30.0154 70.2858 30.425 71.3713C30.8243 72.4465 31.3978 73.4397 32.1248 74.2897C32.806 75.142 33.6393 75.8607 34.5824 76.4093C36.0979 77.2797 37.3267 77.3309 38.3507 76.5629L40.5523 80.1879C39.806 80.7656 38.8721 81.0465 37.9309 80.9764C36.6644 80.8 35.4498 80.3568 34.3674 79.6759C32.7994 78.752 31.4033 77.5637 30.2407 76.1636C29.0375 74.7109 28.0605 73.0849 27.3427 71.3405C26.6737 69.6878 26.3295 67.9216 26.329 66.1386C26.329 64.449 26.6669 63.1281 27.3735 62.1655C27.7132 61.7145 28.1522 61.3477 28.6566 61.0938C29.1609 60.8399 29.717 60.7055 30.2816 60.7012C31.7653 60.7365 33.2107 61.1793 34.4595 61.9812ZM48.2016 69.9172C49.1847 70.4804 50.1267 71.1153 51.0279 71.9242C51.929 72.7229 52.7379 73.5626 53.3933 74.4125L52.3283 76.8087C51.1848 75.3218 49.7836 74.0524 48.1914 73.0609C47.2186 72.4977 46.5223 72.2826 46.0307 72.3748C45.5699 72.4874 45.3651 72.8458 45.3651 73.409C45.3651 74.0234 45.6109 74.5866 46.1434 75.1703C46.6759 75.7642 47.4848 76.522 48.601 77.4333C49.7376 78.4266 50.6387 79.2253 51.3658 79.9831C52.1133 80.6999 52.7175 81.5601 53.2499 82.5329C53.7415 83.4749 54.0282 84.5809 54.0179 85.7073C54.0179 86.6903 53.7722 87.4481 53.2807 87.9601C52.8199 88.4925 52.0826 88.7281 51.1405 88.6564C50.1984 88.5847 49.0106 88.1341 47.6589 87.3559C46.4369 86.6366 45.288 85.7998 44.2285 84.8573C43.2289 83.9626 42.3356 82.9559 41.5661 81.857L42.7642 79.5325C43.4195 80.4746 44.1568 81.3245 45.0579 82.1745C45.9181 82.9937 46.809 83.7105 47.6691 84.202C48.6522 84.7754 49.3895 85.0109 49.881 84.9597C50.3315 84.8983 50.5773 84.5604 50.5875 83.9972L50.1779 82.7684C49.8769 82.3057 49.5191 81.8826 49.113 81.5089C48.6624 81.0583 48.089 80.5873 47.3619 79.9217C46.3884 79.118 45.4456 78.2777 44.5357 77.4026C43.8067 76.6379 43.1865 75.7765 42.6925 74.8426C42.1716 73.845 41.911 72.732 41.9347 71.6068C41.9347 70.6237 42.1395 69.8455 42.6311 69.3335C43.0816 68.7498 43.8189 68.5655 44.7712 68.6372C45.9933 68.8127 47.1633 69.2493 48.2016 69.9172ZM61.8208 77.7713C62.8141 78.3447 63.705 78.9591 64.6471 79.7885C65.5482 80.5873 66.3264 81.4167 67.0227 82.2871L65.9475 84.6833C64.8037 83.2004 63.4066 81.9316 61.8208 80.9354C60.8378 80.362 60.1415 80.1469 59.6499 80.2391C59.1994 80.362 58.9536 80.6897 58.9536 81.2529C58.9536 81.8673 59.2301 82.4509 59.7728 83.0449C60.2951 83.6285 61.104 84.3761 62.2202 85.2977C63.3568 86.2909 64.2682 87.0897 64.9952 87.8577C65.7325 88.554 66.3469 89.4244 66.8691 90.3972C67.3607 91.3393 67.6474 92.4452 67.6474 93.5716C67.6474 94.5546 67.3914 95.3124 66.8999 95.8244C66.4493 96.3671 65.712 96.5924 64.7699 96.5207C63.8279 96.449 62.64 95.9985 61.2883 95.2202C60.0628 94.5015 58.9104 93.6646 57.8477 92.7217C56.8462 91.8319 55.9557 90.8245 55.1955 89.7213L56.3936 87.4071C57.008 88.3287 57.776 89.1889 58.6771 90.0388C59.5373 90.858 60.4384 91.5748 61.2986 92.0663C62.2816 92.6397 63.0189 92.8753 63.5104 92.8241C63.961 92.7626 64.2067 92.4247 64.2067 91.8615L63.7971 90.6327C63.4994 90.1706 63.145 89.7475 62.7424 89.3732C62.2919 88.9226 61.7184 88.4516 60.9402 87.7655C59.8343 86.8439 58.8922 85.9735 58.1549 85.2669C57.4158 84.4922 56.7854 83.6207 56.281 82.6762C55.7742 81.6766 55.5111 80.5713 55.513 79.4506C55.513 78.4676 55.7587 77.7098 56.2605 77.1978C56.7111 76.6141 57.4074 76.3991 58.3904 76.5015C59.616 76.6756 60.7896 77.1122 61.8311 77.7815L61.8208 77.7713Z" fill="white"/>
<path d="M72.112 116.693C72.4253 115.985 72.5791 115.216 72.5626 114.441L72.624 92.7012L72.5728 114.441C72.5728 115.342 72.3987 116.079 72.112 116.693Z" fill="#E4E8F4"/>
</g>
<defs>
<filter id="filter0_d_48_66" x="0.290863" y="0.897461" width="121.553" height="149.494" filterUnits="userSpaceOnUse" color-interpolation-filters="sRGB">
<feFlood flood-opacity="0" result="BackgroundImageFix"/>
<feColorMatrix in="SourceAlpha" type="matrix" values="0 0 0 0 0 0 0 0 0 0 0 0 0 0 0 0 0 0 127 0" result="hardAlpha"/>
<feOffset dx="9" dy="2"/>
<feGaussianBlur stdDeviation="15"/>
<feComposite in2="hardAlpha" operator="out"/>
<feColorMatrix type="matrix" values="0 0 0 0 0.298039 0 0 0 0 0.0627451 0 0 0 0 0.678431 0 0 0 1 0"/>
<feBlend mode="normal" in2="BackgroundImageFix" result="effect1_dropShadow_48_66"/>
<feBlend mode="normal" in="SourceGraphic" in2="effect1_dropShadow_48_66" result="shape"/>
</filter>
</defs>
</svg>
