<svg width="443" height="439" viewBox="0 0 443 439" fill="none" xmlns="http://www.w3.org/2000/svg">
<path d="M154.94 150.698H280.368V349.907H154.94V150.698Z" fill="#A97C50"/>
<path d="M280.368 150.698H405.796V349.907H280.368V150.698Z" fill="#8B5E3C"/>
<path d="M280.368 327.773V349.907H405.796V202.345C405.796 235.611 392.581 267.514 369.059 291.036C345.537 314.558 313.634 327.773 280.368 327.773Z" fill="#754C29"/>
<path d="M429.996 315.968C428.548 313.453 426.619 311.248 424.319 309.479C422.018 307.71 419.392 306.411 416.59 305.658C413.787 304.904 410.864 304.71 407.986 305.086C405.109 305.463 402.334 306.403 399.82 307.852L321.095 353.301H321.058C320.009 349.652 318.036 346.336 315.329 343.673C312.623 341.01 309.274 339.091 305.609 338.102L195.527 308.59C188.265 306.645 180.627 306.581 173.334 308.405L125.428 320.395V408.932L145.592 419.018C151.739 422.088 158.516 423.687 165.388 423.688H275.89C283.658 423.699 291.292 421.664 298.024 417.786L421.976 346.218C427.05 343.269 430.745 338.426 432.249 332.753C433.753 327.081 432.943 321.043 429.996 315.968Z" fill="#FFBCAB"/>
<path d="M321.059 353.301C320.927 352.866 320.831 352.416 320.676 351.988C320.523 352.442 320.353 352.89 320.167 353.331C318.11 358.248 314.342 362.255 309.559 364.61C304.777 366.964 299.303 367.508 294.151 366.139L254.922 355.633L216.844 345.392C215.914 345.144 214.944 345.087 213.992 345.223C213.04 345.36 212.126 345.687 211.304 346.186C210.481 346.685 209.769 347.345 209.208 348.127C208.647 348.908 208.251 349.795 208.041 350.734C207.646 352.526 207.957 354.402 208.909 355.971C209.862 357.54 211.382 358.682 213.154 359.159L292.941 380.556C298.019 382.027 303.448 381.712 308.321 379.663C313.194 377.614 317.216 373.955 319.717 369.297C322.187 364.331 322.668 358.609 321.059 353.301Z" fill="#FF9478"/>
<path d="M381.08 128.564C380.63 130.044 380.037 131.478 379.309 132.843L396.795 150.329L396.426 150.698H282.36L281.992 150.329L299.478 132.843C298.75 131.478 298.157 130.044 297.707 128.564H272.99V99.0513H297.707C298.157 97.5708 298.75 96.1376 299.478 94.772L281.992 77.2859L302.872 56.4058L320.358 73.892C321.723 73.1641 323.156 72.5711 324.637 72.1212V47.4045H354.149V72.1212C355.63 72.5711 357.063 73.1641 358.429 73.892L375.915 56.4058L396.795 77.2859L379.309 94.772C380.037 96.1376 380.63 97.5708 381.08 99.0513H405.796V128.564H381.08Z" fill="#4C10AD"/>
<path d="M221.343 7.41513V62.1607L199.209 76.917L177.075 62.1607V7.41513C167.771 11.1797 159.581 17.2544 153.279 25.0652C146.976 32.8759 142.769 42.1647 141.056 52.0538C139.343 61.9428 140.179 72.1054 143.486 81.5812C146.794 91.057 152.463 99.533 159.957 106.208C163.038 108.948 165.501 112.313 167.18 116.078C168.859 119.844 169.717 123.924 169.697 128.047V150.698H228.721V128.047C228.701 123.924 229.559 119.844 231.238 116.078C232.917 112.313 235.38 108.948 238.461 106.208C245.955 99.533 251.624 91.057 254.932 81.5812C258.239 72.1054 259.075 61.9428 257.362 52.0538C255.649 42.1647 251.442 32.8759 245.139 25.0652C238.837 17.2544 230.647 11.1797 221.343 7.41513Z" fill="#A4A4A4"/>
<path d="M66.4028 298.26V431.067H125.428V298.26H66.4028Z" fill="#045944"/>
<path d="M7.37793 313.017H66.4028V416.31H7.37793V313.017Z" fill="#045944"/>
<path d="M199.209 150.698H154.94L125.428 209.723H250.856L280.368 150.698H228.721H199.209Z" fill="#8B5E3C"/>
<path d="M396.426 150.698H280.368L309.881 209.723H435.309L405.796 150.698H396.426Z" fill="#754C29"/>
<path d="M339.393 135.942C351.618 135.942 361.527 126.032 361.527 113.808C361.527 101.583 351.618 91.6732 339.393 91.6732C327.169 91.6732 317.259 101.583 317.259 113.808C317.259 126.032 327.169 135.942 339.393 135.942Z" fill="#B6B6B6"/>
<path d="M51.647 313.017H66.4032V416.31H51.647V313.017Z" fill="#063D2F"/>
<path d="M441.875 206.403L412.363 147.378C411.766 146.149 410.831 145.114 409.669 144.396C408.506 143.677 407.163 143.304 405.796 143.32H400.189L392.811 135.942H405.796C407.753 135.942 409.63 135.165 411.013 133.781C412.397 132.397 413.174 130.521 413.174 128.564V99.0513C413.174 97.0945 412.397 95.2179 411.013 93.8342C409.63 92.4506 407.753 91.6732 405.796 91.6732H392.811L402.034 82.5244C403.416 81.1313 404.191 79.2484 404.191 77.2859C404.191 75.3234 403.416 73.4405 402.034 72.0474L381.153 51.1674C379.76 49.7851 377.877 49.0094 375.915 49.0094C373.952 49.0094 372.07 49.7851 370.677 51.1674L361.528 60.39V47.4045C361.528 45.4477 360.75 43.5711 359.367 42.1874C357.983 40.8037 356.106 40.0264 354.15 40.0264H324.637C322.68 40.0264 320.804 40.8037 319.42 42.1874C318.036 43.5711 317.259 45.4477 317.259 47.4045V60.39L308.11 51.1674C306.717 49.7851 304.834 49.0094 302.872 49.0094C300.909 49.0094 299.026 49.7851 297.633 51.1674L276.753 72.0474C275.371 73.4405 274.595 75.3234 274.595 77.2859C274.595 79.2484 275.371 81.1313 276.753 82.5244L285.976 91.6732H272.99C271.033 91.6732 269.157 92.4506 267.773 93.8342C266.389 95.2179 265.612 97.0945 265.612 99.0513V128.564C265.612 130.521 266.389 132.397 267.773 133.781C269.157 135.165 271.033 135.942 272.99 135.942H285.976L278.598 143.32H236.1V128.047C236.089 124.974 236.728 121.932 237.974 119.122C239.22 116.313 241.045 113.797 243.33 111.742C251.775 104.239 258.165 94.7054 261.898 84.0437C265.631 73.382 266.582 61.9443 264.661 50.8126C262.741 39.6809 258.012 29.2231 250.923 20.4285C243.833 11.6338 234.618 4.79317 224.147 0.553499C223.024 0.0919104 221.803 -0.0851468 220.595 0.0380468C219.387 0.16124 218.227 0.580873 217.22 1.25969C216.213 1.93852 215.389 2.85553 214.821 3.92932C214.253 5.00312 213.959 6.20049 213.965 7.41515V58.1766L199.209 68.0633L184.453 58.1766V7.41515C184.459 6.20049 184.165 5.00312 183.597 3.92932C183.03 2.85553 182.205 1.93852 181.198 1.25969C180.191 0.580873 179.032 0.16124 177.823 0.0380468C176.615 -0.0851468 175.395 0.0919104 174.271 0.553499C163.801 4.79317 154.585 11.6338 147.496 20.4285C140.406 29.2231 135.678 39.6809 133.757 50.8126C131.837 61.9443 132.788 73.382 136.52 84.0437C140.253 94.7054 146.644 104.239 155.088 111.742C157.373 113.797 159.198 116.313 160.444 119.122C161.69 121.932 162.329 124.974 162.319 128.047V143.32H154.94C153.574 143.304 152.231 143.677 151.068 144.396C149.906 145.114 148.971 146.149 148.374 147.378L118.861 206.403C118.295 207.526 118.026 208.775 118.079 210.032C118.131 211.288 118.504 212.511 119.162 213.583C119.82 214.655 120.741 215.54 121.838 216.156C122.934 216.772 124.17 217.097 125.428 217.101H147.562V307.262L132.806 310.951V298.26C132.806 296.304 132.029 294.427 130.645 293.043C129.261 291.66 127.385 290.882 125.428 290.882H66.403C64.4462 290.882 62.5696 291.66 61.1859 293.043C59.8023 294.427 59.0249 296.304 59.0249 298.26V305.639H7.37812C5.42132 305.639 3.54466 306.416 2.161 307.8C0.777335 309.183 0 311.06 0 313.017V416.31C0 418.267 0.777335 420.144 2.161 421.527C3.54466 422.911 5.42132 423.688 7.37812 423.688H59.0249V431.067C59.0249 433.023 59.8023 434.9 61.1859 436.284C62.5696 437.667 64.4462 438.445 66.403 438.445H125.428C127.385 438.445 129.261 437.667 130.645 436.284C132.029 434.9 132.806 433.023 132.806 431.067V420.885L142.324 425.607C149.499 429.178 157.402 431.047 165.417 431.067H275.868C284.938 431.086 293.851 428.693 301.691 424.131L425.643 352.563C431.095 349.419 435.395 344.611 437.916 338.844C440.437 333.078 441.044 326.656 439.65 320.519C438.256 314.382 434.934 308.853 430.169 304.741C425.405 300.629 419.449 298.151 413.174 297.67V217.101H435.309C436.566 217.097 437.802 216.772 438.899 216.156C439.996 215.54 440.917 214.655 441.575 213.583C442.232 212.511 442.605 211.288 442.658 210.032C442.711 208.775 442.441 207.526 441.875 206.403ZM59.0249 408.932H14.7562V320.395H59.0249V408.932ZM118.05 423.688H73.7812V305.639H118.05V423.688ZM280.368 121.186V106.429H297.707C299.292 106.425 300.833 105.914 302.108 104.972C303.382 104.03 304.321 102.705 304.79 101.191C305.113 100.146 305.533 99.1329 306.044 98.166C306.771 96.7731 307.034 95.1848 306.795 93.6321C306.556 92.0795 305.828 90.6436 304.716 89.5336L292.395 77.2859L302.872 66.809L315.119 79.1304C316.229 80.2419 317.665 80.9701 319.218 81.209C320.771 81.4479 322.359 81.1849 323.752 80.4585C324.719 79.9468 325.731 79.5269 326.777 79.2042C328.291 78.7357 329.615 77.7959 330.558 76.5218C331.5 75.2477 332.011 73.7059 332.015 72.1212V54.7826H346.771V72.1212C346.776 73.7059 347.287 75.2477 348.229 76.5218C349.171 77.7959 350.496 78.7357 352.01 79.2042C353.055 79.5269 354.068 79.9468 355.035 80.4585C356.428 81.1849 358.016 81.4479 359.569 81.209C361.121 80.9701 362.557 80.2419 363.667 79.1304L375.915 66.809L386.392 77.2859L374.07 89.5336C372.959 90.6436 372.231 92.0795 371.992 93.6321C371.753 95.1848 372.016 96.7731 372.742 98.166C373.254 99.1329 373.674 100.146 373.997 101.191C374.465 102.705 375.405 104.03 376.679 104.972C377.953 105.914 379.495 106.425 381.08 106.429H398.418V121.186H381.08C379.495 121.19 377.953 121.701 376.679 122.643C375.405 123.586 374.465 124.91 373.997 126.424C373.674 127.469 373.254 128.482 372.742 129.449C372.016 130.842 371.753 132.43 371.992 133.983C372.231 135.536 372.959 136.971 374.07 138.082L379.383 143.32H299.404L304.716 138.082C305.828 136.971 306.556 135.536 306.795 133.983C307.034 132.43 306.771 130.842 306.044 129.449C305.533 128.482 305.113 127.469 304.79 126.424C304.321 124.91 303.382 123.586 302.108 122.643C300.833 121.701 299.292 121.19 297.707 121.186H280.368ZM287.746 181.981L303.314 213.043C303.912 214.273 304.846 215.307 306.009 216.025C307.171 216.744 308.514 217.117 309.881 217.101H398.418V300.326C397.68 300.695 396.869 301.064 396.131 301.433L324.194 342.972C320.266 337.086 314.345 332.815 307.52 330.945L287.746 325.707V181.981ZM147.562 62.1608C147.544 53.8262 149.549 45.6116 153.404 38.2222C157.259 30.8329 162.85 24.4895 169.697 19.7366V62.1608C169.703 63.376 170.009 64.5709 170.589 65.6392C171.168 66.7075 172.002 67.6162 173.017 68.2846L195.151 83.0408C196.342 83.8695 197.758 84.3137 199.209 84.3137C200.66 84.3137 202.076 83.8695 203.267 83.0408L225.401 68.2846C226.416 67.6162 227.25 66.7075 227.83 65.6392C228.409 64.5709 228.715 63.376 228.722 62.1608V19.7366C235.126 24.1942 240.438 30.0451 244.257 36.8498C248.076 43.6546 250.303 51.2363 250.772 59.0254C251.241 66.8145 249.938 74.6086 246.962 81.8222C243.987 89.0357 239.415 95.4812 233.591 100.675C229.717 104.101 226.62 108.316 224.508 113.037C222.396 117.758 221.317 122.875 221.343 128.047V143.32H206.587V121.186C206.587 119.229 205.81 117.352 204.426 115.969C203.043 114.585 201.166 113.808 199.209 113.808C197.252 113.808 195.376 114.585 193.992 115.969C192.608 117.352 191.831 119.229 191.831 121.186V143.32H177.075V128.047C177.098 122.883 176.025 117.773 173.927 113.054C171.828 108.335 168.752 104.116 164.901 100.675C159.444 95.8522 155.076 89.924 152.087 83.2837C149.097 76.6433 147.555 69.4429 147.562 62.1608ZM137.381 202.345L159.515 158.076H268.416L246.281 202.345H137.381ZM272.99 181.981V321.723L197.438 301.507C188.967 299.221 180.051 299.145 171.541 301.285L162.319 303.573V217.101H250.856C252.223 217.117 253.566 216.744 254.728 216.025C255.891 215.307 256.825 214.273 257.422 213.043L272.99 181.981ZM423.578 319.657C425.537 323.034 426.078 327.05 425.082 330.826C424.087 334.601 421.635 337.828 418.265 339.799L294.313 411.367C288.707 414.611 282.344 416.316 275.868 416.31H165.417C159.678 416.322 154.016 414.982 148.89 412.4L132.806 404.358V326.15L175.083 315.599C181.166 314.061 187.543 314.112 193.602 315.747L303.683 345.259C306.515 345.994 309.063 347.559 311.001 349.752C312.938 351.945 314.176 354.666 314.556 357.567C314.937 360.468 314.442 363.417 313.136 366.035C311.83 368.654 309.771 370.822 307.225 372.263C305.562 373.244 303.718 373.88 301.804 374.134C299.89 374.387 297.945 374.253 296.084 373.739L208.063 350.129C206.165 349.62 204.142 349.886 202.44 350.868C200.738 351.851 199.497 353.469 198.988 355.367C198.479 357.265 198.745 359.288 199.727 360.99C200.71 362.691 202.328 363.933 204.226 364.442L292.247 387.978C294.75 388.652 297.329 388.999 299.92 389.011C305.083 389.019 310.152 387.643 314.603 385.027C317.975 383.101 320.931 380.524 323.3 377.447C325.668 374.369 327.402 370.851 328.4 367.098C329.218 363.846 329.493 360.48 329.211 357.138L403.509 314.271C406.899 312.389 410.888 311.899 414.633 312.904C418.378 313.909 421.585 316.331 423.578 319.657ZM314.455 202.345L292.321 158.076H401.222L423.356 202.345H314.455Z" fill="#231F20"/>
<path d="M368.906 113.808C368.906 107.971 367.175 102.265 363.932 97.4113C360.689 92.558 356.08 88.7753 350.687 86.5416C345.295 84.3079 339.361 83.7234 333.636 84.8622C327.911 86.0009 322.652 88.8117 318.525 92.9391C314.397 97.0665 311.587 102.325 310.448 108.05C309.309 113.775 309.894 119.709 312.127 125.101C314.361 130.494 318.144 135.103 322.997 138.346C327.85 141.589 333.556 143.32 339.393 143.32C347.221 143.32 354.727 140.211 360.262 134.676C365.796 129.141 368.906 121.635 368.906 113.808ZM339.393 128.564C336.475 128.564 333.622 127.698 331.195 126.077C328.769 124.455 326.877 122.151 325.76 119.455C324.643 116.758 324.351 113.791 324.921 110.929C325.49 108.066 326.895 105.437 328.959 103.373C331.023 101.31 333.652 99.9042 336.515 99.3349C339.377 98.7655 342.344 99.0577 345.04 100.175C347.737 101.291 350.041 103.183 351.663 105.609C353.284 108.036 354.15 110.889 354.15 113.808C354.15 117.721 352.595 121.474 349.828 124.242C347.06 127.009 343.307 128.564 339.393 128.564Z" fill="#231F20"/>
</svg>
