<svg width="528" height="552" viewBox="0 0 528 552" fill="none" xmlns="http://www.w3.org/2000/svg">
<g filter="url(#filter0_d_48_6)">
<path d="M479.593 406.71L479.501 421.435C479.501 422.521 478.784 423.688 477.433 424.507L374.203 484.483L299.574 518.326C296.686 519.954 291.986 519.954 289.099 518.326L23.432 364.952C21.9882 364.132 21.2611 363.047 21.2611 361.88L21.3635 356.667C21.3635 357.753 22.0803 358.92 23.5139 359.739L289.088 513.114C291.976 514.742 296.768 514.742 299.564 513.114L477.422 409.793C478.856 408.973 479.593 407.796 479.593 406.71Z" fill="#979BA2"/>
<path d="M477.412 403.894C480.29 405.564 480.31 408.298 477.443 409.957L299.605 513.309C296.738 514.978 292.027 514.978 289.14 513.309L23.5037 359.955C20.616 358.285 20.6058 355.551 23.473 353.892L201.321 250.54C204.189 248.871 208.899 248.871 211.776 250.54L477.412 403.894ZM488.953 191.568L488.42 397.238C488.42 398.877 487.785 400.044 486.884 400.587L480.464 404.284C481.457 403.741 482 402.563 482 400.945L482.635 195.265C482.635 191.926 480.279 187.861 477.392 186.151L211.848 32.848C210.394 31.9469 209.042 31.9469 208.059 32.4896L214.459 28.7828C215.371 28.2503 216.712 28.3322 218.166 29.1412L483.72 182.454C486.608 184.175 488.953 188.24 488.953 191.568Z" fill="#B6BED7"/>
<path d="M477.535 185.956C480.423 187.625 482.778 191.701 482.768 195.019L482.184 400.71C482.184 404.027 479.808 405.379 476.921 403.71L211.346 250.386C208.407 248.687 206.103 244.632 206.124 241.324L206.697 35.6229C206.708 32.3153 209.022 30.9329 211.961 32.6328L477.535 185.956ZM478.958 398.846L479.542 193.155C479.507 192.456 479.305 191.776 478.954 191.17C478.604 190.565 478.114 190.052 477.525 189.673L211.95 36.3294C210.804 35.6638 209.872 36.1861 209.872 37.4558L209.288 243.147C209.288 244.478 210.21 245.993 211.356 246.659L476.931 399.993C478.088 400.658 478.948 400.177 478.958 398.846Z" fill="#979BA2"/>
<path d="M477.535 189.622L211.981 36.3397C210.804 35.7049 209.902 36.1657 209.902 37.4252L209.268 243.188C209.268 244.457 210.169 245.993 211.346 246.71L476.91 400.003C478.078 400.628 478.989 400.177 478.989 398.825L479.532 193.145C479.499 192.442 479.302 191.757 478.955 191.145C478.608 190.533 478.121 190.011 477.535 189.622ZM469.681 287.629L469.415 378.95L218.934 234.34L219.477 51.7919L469.947 196.401L469.681 287.629Z" fill="#5B5E71"/>
<path d="M219.477 51.792L218.934 234.34L469.404 378.95L469.947 196.401L219.477 51.792Z" fill="#545D6F"/>
<path d="M223.276 266.095C224.433 266.771 224.392 267.836 223.276 268.471L217.746 271.666C217.115 271.997 216.412 272.171 215.698 272.171C214.985 272.171 214.282 271.997 213.65 271.666L201.772 264.774C200.604 264.088 200.604 263.064 201.762 262.398L207.291 259.193C207.926 258.871 208.628 258.704 209.34 258.706C210.052 258.708 210.754 258.878 211.387 259.204L223.276 266.095ZM212.053 272.587C213.22 273.263 213.159 274.328 212.053 274.963L200.174 281.844C199.539 282.166 198.837 282.333 198.125 282.331C197.413 282.33 196.712 282.159 196.078 281.834L184.19 274.942C183.022 274.267 183.063 273.202 184.18 272.567L196.058 265.685C196.694 265.362 197.398 265.194 198.112 265.196C198.826 265.197 199.529 265.369 200.164 265.696L212.053 272.587ZM295.406 307.925C296.512 308.571 296.512 309.666 295.406 310.301L289.877 313.496C289.243 313.82 288.541 313.988 287.829 313.988C287.117 313.988 286.415 313.82 285.781 313.496L273.841 306.564C272.735 305.918 272.725 304.894 273.892 304.219L279.422 301.024C280.047 300.704 280.739 300.535 281.442 300.532C282.144 300.528 282.838 300.69 283.467 301.003L295.406 307.925ZM277.353 297.45C278.521 298.136 278.48 299.191 277.364 299.836L271.834 303.031C271.202 303.363 270.499 303.536 269.786 303.536C269.072 303.536 268.37 303.363 267.738 303.031L255.86 296.129C254.682 295.453 254.682 294.429 255.839 293.753L261.369 290.558C262.003 290.235 262.705 290.066 263.417 290.066C264.129 290.066 264.83 290.235 265.465 290.558L277.353 297.45ZM264.297 302.887C265.465 303.563 265.413 304.628 264.308 305.263L252.429 312.144C251.793 312.468 251.089 312.636 250.375 312.634C249.661 312.632 248.958 312.461 248.323 312.134L236.444 305.243C235.277 304.567 235.318 303.502 236.434 302.867L248.313 295.986C248.948 295.664 249.65 295.497 250.362 295.498C251.074 295.5 251.775 295.671 252.409 295.996L264.297 302.887ZM313.449 318.391C314.555 319.036 314.565 320.132 313.449 320.766L307.92 323.961C307.286 324.285 306.584 324.454 305.872 324.454C305.16 324.454 304.458 324.285 303.824 323.961L291.884 317.029C290.778 316.384 290.716 315.329 291.884 314.653L297.413 311.458C298.05 311.142 298.751 310.978 299.461 310.978C300.172 310.978 300.873 311.142 301.509 311.458L313.449 318.391ZM333.991 343.305C335.097 343.95 335.097 345.045 333.991 345.68L322.112 352.551C321.476 352.867 320.775 353.032 320.064 353.032C319.354 353.032 318.653 352.867 318.016 352.551L306.066 345.619C304.96 344.974 304.95 343.888 306.066 343.243L317.945 336.372C318.581 336.056 319.282 335.892 319.993 335.892C320.703 335.892 321.404 336.056 322.041 336.372L333.991 343.305ZM367.527 349.756C368.643 350.401 368.653 351.497 367.537 352.132L362.007 355.326C361.373 355.65 360.671 355.819 359.959 355.819C359.247 355.819 358.546 355.65 357.911 355.326L345.972 348.394C344.866 347.749 344.804 346.694 345.972 346.018L351.491 342.823C352.127 342.508 352.828 342.343 353.539 342.343C354.249 342.343 354.95 342.508 355.587 342.823L367.527 349.756ZM351.419 353.412C352.535 354.057 352.474 355.122 351.378 355.757L339.49 362.638C338.864 362.958 338.172 363.126 337.47 363.13C336.767 363.133 336.073 362.972 335.445 362.658L323.505 355.736C322.338 355.06 322.389 353.995 323.505 353.36L335.383 346.479C336.018 346.157 336.721 345.99 337.433 345.992C338.145 345.994 338.846 346.164 339.479 346.489L351.419 353.412ZM203.625 287.497C204.741 288.142 204.752 289.237 203.636 289.872L191.757 296.743C191.119 297.061 190.416 297.226 189.704 297.226C188.992 297.226 188.289 297.061 187.651 296.743L167.099 284.824C165.932 284.148 165.993 283.083 167.099 282.448L178.978 275.577C179.612 275.254 180.314 275.085 181.026 275.085C181.738 275.085 182.439 275.254 183.074 275.577L203.625 287.497ZM220.726 297.409C221.842 298.054 221.852 299.15 220.736 299.785L208.858 306.666C208.22 306.983 207.517 307.149 206.805 307.149C206.092 307.149 205.39 306.983 204.752 306.666L192.812 299.733C191.706 299.088 191.696 297.993 192.812 297.358L204.69 290.487C205.327 290.171 206.028 290.007 206.738 290.007C207.449 290.007 208.15 290.171 208.786 290.487L220.726 297.409ZM237.776 307.301C238.882 307.946 238.892 309.042 237.776 309.676L225.897 316.548C225.261 316.863 224.56 317.028 223.849 317.028C223.139 317.028 222.438 316.863 221.801 316.548L209.923 309.656C208.745 308.98 208.796 307.915 209.902 307.28L221.791 300.399C222.425 300.075 223.127 299.907 223.839 299.907C224.551 299.907 225.253 300.075 225.887 300.399L237.776 307.301ZM207.926 309.779C209.032 310.424 208.981 311.479 207.875 312.124L195.996 318.995C195.379 319.312 194.694 319.477 194 319.477C193.305 319.477 192.621 319.312 192.003 318.995L180.063 312.062C178.947 311.417 178.885 310.363 179.991 309.728L191.88 302.846C192.517 302.531 193.217 302.366 193.928 302.366C194.639 302.366 195.339 302.531 195.976 302.846L207.926 309.779ZM281.736 313.005C282.842 313.639 282.852 314.745 281.736 315.37L269.858 322.251C269.221 322.567 268.52 322.731 267.81 322.731C267.099 322.731 266.398 322.567 265.762 322.251L253.822 315.319C252.706 314.674 252.695 313.578 253.812 312.943L265.69 306.072C266.328 305.755 267.031 305.589 267.743 305.589C268.456 305.589 269.158 305.755 269.796 306.072L281.736 313.005ZM181.456 314.223C182.562 314.868 182.51 315.923 181.404 316.558L169.577 323.408C168.954 323.736 168.261 323.908 167.557 323.912C166.853 323.915 166.159 323.75 165.532 323.429L133.655 304.946C132.549 304.3 132.488 303.246 133.655 302.57L145.483 295.73C146.119 295.414 146.82 295.25 147.531 295.25C148.241 295.25 148.942 295.414 149.579 295.73L181.456 314.223ZM255.214 317.418C256.32 318.053 256.331 319.149 255.214 319.783L243.336 326.665C242.699 326.98 241.999 327.145 241.288 327.145C240.577 327.145 239.877 326.98 239.24 326.665L227.29 319.732C226.184 319.087 226.184 317.991 227.29 317.356L239.168 310.475C239.806 310.161 240.507 309.998 241.218 310C241.928 310.002 242.629 310.168 243.264 310.485L255.214 317.418ZM224.965 319.671C226.082 320.306 226.082 321.401 224.976 322.036L213.097 328.917C212.466 329.23 211.769 329.389 211.065 329.381C210.36 329.374 209.667 329.201 209.042 328.876L197.102 321.954C195.996 321.309 195.935 320.244 197.041 319.599L208.93 312.738C209.566 312.422 210.267 312.258 210.978 312.258C211.688 312.258 212.389 312.422 213.026 312.738L224.965 319.671ZM299.175 323.111C300.281 323.757 300.229 324.811 299.124 325.456L287.245 332.327C286.619 332.651 285.926 332.822 285.221 332.827C284.517 332.833 283.821 332.672 283.19 332.358L271.25 325.436C270.144 324.791 270.134 323.695 271.25 323.06L283.129 316.179C283.765 315.863 284.466 315.699 285.177 315.699C285.887 315.699 286.588 315.863 287.225 316.179L299.175 323.111ZM200 324.33C201.168 325.006 201.106 326.071 200 326.706L188.122 333.587C187.487 333.909 186.785 334.076 186.073 334.074C185.361 334.072 184.659 333.902 184.026 333.577L172.137 326.685C171.021 326.04 171.011 324.944 172.127 324.309L184.005 317.428C184.644 317.112 185.347 316.949 186.06 316.951C186.772 316.952 187.475 317.119 188.112 317.438L200 324.33ZM272.592 327.494C273.759 328.17 273.708 329.225 272.592 329.86L260.713 336.741C260.079 337.064 259.377 337.233 258.665 337.233C257.953 337.233 257.251 337.064 256.617 336.741L244.729 329.839C243.623 329.204 243.612 328.098 244.729 327.463L256.607 320.592C257.244 320.277 257.944 320.112 258.655 320.112C259.366 320.112 260.067 320.277 260.703 320.592L272.592 327.494ZM242.404 329.778C243.51 330.413 243.52 331.518 242.404 332.153L230.526 339.024C229.895 339.334 229.201 339.492 228.498 339.485C227.796 339.477 227.105 339.306 226.481 338.983L214.541 332.061C213.425 331.416 213.374 330.361 214.48 329.716L226.358 322.845C226.996 322.528 227.699 322.362 228.411 322.362C229.124 322.362 229.826 322.528 230.464 322.845L242.404 329.778ZM178.025 332.604C179.141 333.249 179.203 334.304 178.036 334.98L164.724 342.69C164.085 343.006 163.382 343.17 162.669 343.168C161.957 343.166 161.254 342.999 160.617 342.68L148.739 335.789C147.561 335.113 147.612 334.048 148.718 333.413L162.051 325.702C162.683 325.37 163.385 325.197 164.099 325.197C164.812 325.197 165.515 325.37 166.147 325.702L178.025 332.604ZM217.429 334.447C218.596 335.123 218.545 336.188 217.439 336.823L205.561 343.694C204.925 344.019 204.221 344.189 203.508 344.189C202.794 344.189 202.09 344.019 201.454 343.694L189.576 336.792C188.409 336.116 188.45 335.061 189.566 334.416L201.444 327.545C202.078 327.222 202.78 327.053 203.492 327.053C204.204 327.053 204.906 327.222 205.54 327.545L217.429 334.447ZM290.03 337.601C291.188 338.277 291.136 339.342 290.03 339.977L278.152 346.858C277.517 347.18 276.815 347.347 276.103 347.345C275.391 347.343 274.689 347.173 274.056 346.848L262.167 339.956C261 339.28 261.051 338.215 262.157 337.58L274.036 330.699C274.672 330.375 275.376 330.208 276.09 330.209C276.804 330.211 277.507 330.383 278.142 330.709L290.03 337.601ZM259.781 339.844C260.949 340.53 260.898 341.584 259.792 342.229L247.913 349.1C247.285 349.422 246.588 349.586 245.882 349.581C245.176 349.576 244.482 349.4 243.858 349.07L231.98 342.178C230.812 341.502 230.802 340.468 231.908 339.823L243.797 332.962C244.431 332.639 245.133 332.47 245.845 332.47C246.557 332.47 247.259 332.639 247.893 332.962L259.781 339.844ZM234.868 344.554C235.973 345.199 235.984 346.295 234.868 346.93L222.989 353.811C222.352 354.125 221.65 354.288 220.94 354.286C220.229 354.284 219.529 354.118 218.893 353.801L206.953 346.878C205.837 346.233 205.827 345.138 206.943 344.503L218.821 337.621C219.459 337.304 220.162 337.139 220.875 337.139C221.587 337.139 222.29 337.304 222.928 337.621L234.868 344.554ZM199.181 344.861C200.297 345.517 200.308 346.541 199.14 347.216L185.818 354.927C185.192 355.247 184.501 355.416 183.798 355.419C183.095 355.423 182.402 355.261 181.773 354.948L166.055 345.834C164.949 345.189 164.939 344.093 166.055 343.458L179.367 335.748C180.002 335.426 180.704 335.259 181.416 335.26C182.128 335.262 182.829 335.433 183.463 335.758L199.181 344.861ZM307.459 347.708C308.575 348.353 308.585 349.449 307.469 350.084L295.591 356.965C294.953 357.282 294.25 357.447 293.538 357.447C292.825 357.447 292.122 357.282 291.484 356.965L279.545 350.032C278.428 349.387 278.428 348.292 279.545 347.657L291.423 340.786C292.06 340.47 292.76 340.306 293.471 340.306C294.182 340.306 294.883 340.47 295.519 340.786L307.459 347.708ZM277.22 349.961C278.326 350.606 278.326 351.701 277.22 352.336L265.342 359.218C264.711 359.528 264.017 359.686 263.314 359.679C262.612 359.672 261.921 359.5 261.297 359.177L249.357 352.254C248.241 351.609 248.19 350.555 249.296 349.909L261.174 343.028C261.813 342.712 262.516 342.549 263.228 342.551C263.941 342.552 264.643 342.719 265.28 343.038L277.22 349.961ZM252.296 354.661C253.422 355.306 253.422 356.402 252.316 357.037L240.428 363.918C239.791 364.234 239.09 364.398 238.38 364.398C237.669 364.398 236.968 364.234 236.332 363.918L224.382 356.985C223.276 356.34 223.266 355.245 224.382 354.61L236.26 347.739C236.897 347.423 237.598 347.258 238.308 347.258C239.019 347.258 239.72 347.423 240.356 347.739L252.296 354.661ZM385.58 360.221C386.686 360.866 386.696 361.962 385.58 362.597L380.05 365.792C379.416 366.115 378.714 366.284 378.002 366.284C377.29 366.284 376.588 366.115 375.954 365.792L364.014 358.859C362.908 358.214 362.847 357.159 364.014 356.484L369.544 353.289C370.181 352.973 370.881 352.809 371.592 352.809C372.303 352.809 373.003 352.973 373.64 353.289L385.58 360.221ZM324.898 357.825C326.004 358.47 325.952 359.525 324.846 360.17L312.968 367.041C312.342 367.363 311.648 367.534 310.944 367.54C310.24 367.545 309.544 367.385 308.913 367.072L296.983 360.149C295.816 359.463 295.857 358.409 296.973 357.774L308.852 350.892C309.487 350.567 310.191 350.398 310.905 350.398C311.619 350.398 312.322 350.567 312.958 350.892L324.898 357.825ZM294.597 360.047C295.765 360.723 295.714 361.788 294.597 362.423L282.719 369.294C282.091 369.611 281.395 369.772 280.692 369.765C279.988 369.758 279.296 369.582 278.674 369.253L266.796 362.361C265.68 361.716 265.618 360.661 266.724 360.016L278.613 353.145C279.249 352.829 279.95 352.665 280.661 352.665C281.371 352.665 282.072 352.829 282.709 353.145L294.597 360.047ZM368.796 363.498C369.964 364.164 369.923 365.229 368.807 365.863L356.928 372.745C356.293 373.07 355.589 373.24 354.875 373.24C354.161 373.24 353.458 373.07 352.822 372.745L340.944 365.843C339.776 365.167 339.817 364.102 340.933 363.467L352.812 356.596C353.447 356.271 354.151 356.101 354.865 356.101C355.579 356.101 356.283 356.271 356.918 356.596L368.796 363.498ZM269.684 364.747C270.851 365.423 270.8 366.488 269.684 367.123L257.805 373.994C257.171 374.318 256.469 374.486 255.757 374.486C255.045 374.486 254.343 374.318 253.709 373.994L241.82 367.102C240.653 366.427 240.704 365.362 241.82 364.727L253.699 357.845C254.333 357.522 255.035 357.353 255.747 357.353C256.459 357.353 257.161 357.522 257.795 357.845L269.684 364.747ZM403.561 370.656C404.729 371.332 404.688 372.397 403.572 373.031L398.042 376.226C397.41 376.558 396.707 376.732 395.994 376.732C395.28 376.732 394.578 376.558 393.946 376.226L382.068 369.324C380.9 368.649 380.89 367.625 382.057 366.949L387.587 363.754C388.221 363.43 388.923 363.262 389.635 363.262C390.347 363.262 391.049 363.43 391.683 363.754L403.561 370.656ZM342.275 367.901C343.391 368.546 343.401 369.642 342.285 370.277L330.407 377.158C329.768 377.474 329.065 377.637 328.352 377.636C327.64 377.634 326.938 377.467 326.3 377.148L314.422 370.256C313.244 369.581 313.296 368.516 314.402 367.881L326.29 360.999C326.925 360.677 327.627 360.51 328.339 360.512C329.051 360.514 329.753 360.684 330.386 361.01L342.275 367.901ZM312.036 370.154C313.204 370.83 313.142 371.895 312.036 372.53L300.158 379.411C299.53 379.729 298.834 379.891 298.13 379.884C297.426 379.877 296.735 379.7 296.113 379.37L284.235 372.478C283.057 371.803 283.057 370.768 284.163 370.123L296.041 363.262C296.677 362.937 297.38 362.767 298.094 362.767C298.808 362.767 299.512 362.937 300.148 363.262L312.036 370.154ZM386.235 373.605C387.351 374.25 387.351 375.346 386.245 375.98L374.367 382.852C373.729 383.169 373.026 383.334 372.314 383.334C371.601 383.334 370.899 383.169 370.261 382.852L358.321 375.919C357.205 375.284 357.195 374.188 358.311 373.554L370.189 366.672C370.827 366.355 371.53 366.19 372.242 366.19C372.955 366.19 373.658 366.355 374.295 366.672L386.235 373.605ZM287.112 374.864C288.228 375.499 288.238 376.595 287.122 377.23L275.244 384.111C274.607 384.425 273.905 384.588 273.195 384.586C272.484 384.584 271.784 384.418 271.148 384.101L259.198 377.179C258.092 376.533 258.143 375.479 259.249 374.834L271.127 367.952C271.754 367.631 272.448 367.462 273.152 367.459C273.857 367.455 274.552 367.617 275.182 367.932L287.112 374.864ZM421.614 381.111C422.72 381.766 422.731 382.852 421.614 383.497L416.085 386.692C415.451 387.015 414.749 387.184 414.037 387.184C413.325 387.184 412.623 387.015 411.989 386.692L400.059 379.759C398.943 379.114 398.933 378.09 400.1 377.414L405.63 374.219C406.255 373.899 406.947 373.731 407.65 373.727C408.352 373.724 409.046 373.885 409.675 374.199L421.614 381.111ZM359.714 378.018C360.82 378.653 360.83 379.749 359.714 380.384L347.835 387.265C347.199 387.581 346.498 387.745 345.787 387.745C345.077 387.745 344.376 387.581 343.739 387.265L331.789 380.332C330.683 379.687 330.683 378.592 331.789 377.957L343.668 371.086C344.304 370.77 345.005 370.606 345.715 370.606C346.426 370.606 347.127 370.77 347.764 371.086L359.714 378.018ZM329.465 380.261C330.581 380.906 330.591 382.002 329.475 382.637L317.596 389.518C316.965 389.829 316.268 389.988 315.564 389.981C314.86 389.973 314.167 389.801 313.541 389.477L301.602 382.555C300.496 381.909 300.434 380.855 301.54 380.21L313.429 373.339C314.065 373.023 314.766 372.858 315.477 372.858C316.187 372.858 316.888 373.023 317.525 373.339L329.465 380.261ZM403.612 383.681C404.78 384.357 404.729 385.422 403.623 386.057L391.744 392.938C391.108 393.262 390.404 393.43 389.69 393.428C388.976 393.426 388.273 393.255 387.638 392.928L375.76 386.036C374.644 385.391 374.633 384.295 375.749 383.66L387.628 376.779C388.266 376.463 388.97 376.3 389.682 376.302C390.395 376.303 391.097 376.47 391.734 376.789L403.612 383.681ZM304.551 384.971C305.667 385.606 305.605 386.671 304.51 387.306L292.621 394.187C291.996 394.507 291.304 394.676 290.601 394.679C289.899 394.683 289.205 394.521 288.576 394.208L276.636 387.285C275.531 386.64 275.52 385.545 276.636 384.91L288.515 378.039C289.151 377.723 289.852 377.559 290.563 377.559C291.273 377.559 291.974 377.723 292.611 378.039L304.551 384.971ZM439.657 391.586C440.773 392.231 440.773 393.327 439.657 393.962L434.138 397.157C433.504 397.48 432.802 397.649 432.09 397.649C431.378 397.649 430.676 397.48 430.042 397.157L418.102 390.224C416.986 389.579 416.935 388.525 418.092 387.849L423.621 384.654C424.258 384.338 424.959 384.174 425.669 384.174C426.38 384.174 427.081 384.338 427.717 384.654L439.657 391.586ZM377.091 388.094C378.258 388.77 378.207 389.835 377.091 390.47L365.212 397.341C364.578 397.665 363.876 397.833 363.164 397.833C362.453 397.833 361.751 397.665 361.116 397.341L349.238 390.45C348.112 389.805 348.112 388.709 349.218 388.074L361.106 381.193C361.743 380.877 362.444 380.713 363.154 380.713C363.865 380.713 364.566 380.877 365.202 381.193L377.091 388.094ZM346.914 390.378C348.02 391.023 348.02 392.119 346.914 392.754L335.025 399.625C334.395 399.937 333.701 400.096 332.999 400.091C332.296 400.086 331.605 399.915 330.98 399.594L319.04 392.672C317.934 392.027 317.873 390.962 318.979 390.317L330.857 383.445C331.495 383.128 332.198 382.963 332.91 382.963C333.623 382.963 334.326 383.128 334.964 383.445L346.914 390.378ZM420.724 393.604C421.829 394.249 421.829 395.344 420.724 395.979L408.845 402.85C408.209 403.166 407.508 403.33 406.797 403.33C406.087 403.33 405.386 403.166 404.749 402.85L392.799 395.918C391.693 395.273 391.683 394.177 392.799 393.542L404.677 386.671C405.314 386.355 406.015 386.191 406.725 386.191C407.436 386.191 408.137 386.355 408.773 386.671L420.724 393.604ZM286.139 395.303C287.255 395.938 287.307 397.003 286.139 397.669L272.827 405.38C272.191 405.695 271.49 405.86 270.779 405.86C270.069 405.86 269.368 405.695 268.731 405.38L187.6 358.327C186.494 357.682 186.484 356.586 187.6 355.951L200.912 348.24C201.547 347.918 202.249 347.751 202.961 347.753C203.673 347.755 204.374 347.925 205.008 348.251L286.139 395.303ZM394.53 398.212C395.697 398.877 395.646 399.942 394.53 400.577L382.651 407.458C382.017 407.782 381.315 407.951 380.603 407.951C379.891 407.951 379.189 407.782 378.555 407.458L366.605 400.526C365.499 399.881 365.55 398.826 366.656 398.181L378.535 391.31C379.161 390.987 379.854 390.815 380.559 390.81C381.263 390.805 381.959 390.965 382.59 391.279L394.53 398.212ZM364.281 400.464C365.448 401.13 365.397 402.195 364.291 402.83L352.412 409.711C351.783 410.031 351.086 410.194 350.38 410.186C349.674 410.179 348.98 410.002 348.357 409.67L336.479 402.779C335.312 402.103 335.312 401.079 336.418 400.434L348.296 393.552C348.931 393.23 349.633 393.063 350.345 393.065C351.057 393.067 351.759 393.237 352.392 393.563L364.281 400.464ZM339.367 405.154C340.483 405.799 340.483 406.895 339.377 407.53L327.499 414.411C326.861 414.729 326.158 414.894 325.445 414.894C324.733 414.894 324.03 414.729 323.392 414.411L311.452 407.479C310.336 406.834 310.326 405.738 311.442 405.103L323.321 398.222C323.959 397.906 324.662 397.742 325.375 397.744C326.087 397.746 326.79 397.913 327.427 398.232L339.367 405.154ZM411.958 408.318C413.074 408.964 413.084 410.059 411.968 410.694L400.09 417.565C399.452 417.883 398.749 418.048 398.037 418.048C397.324 418.048 396.622 417.883 395.984 417.565L384.044 410.633C382.938 409.988 382.928 408.892 384.044 408.257L395.922 401.386C396.559 401.07 397.26 400.906 397.97 400.906C398.681 400.906 399.382 401.07 400.018 401.386L411.958 408.318ZM446.487 408.544C447.593 409.189 447.542 410.244 446.436 410.889L434.558 417.76C433.932 418.083 433.238 418.254 432.534 418.26C431.829 418.265 431.134 418.104 430.503 417.79L409.9 405.84C408.794 405.195 408.784 404.1 409.9 403.465L421.778 396.583C422.416 396.269 423.117 396.107 423.827 396.108C424.538 396.11 425.239 396.276 425.874 396.594L446.487 408.544ZM307.459 407.663C308.575 408.308 308.636 409.363 307.469 410.039L294.147 417.749C293.51 418.064 292.808 418.226 292.098 418.224C291.387 418.223 290.687 418.057 290.051 417.739L274.384 408.656C273.227 407.981 273.268 406.916 274.384 406.281L287.696 398.57C288.329 398.238 289.035 398.065 289.75 398.067C290.466 398.069 291.17 398.245 291.802 398.58L307.459 407.663ZM381.719 410.571C382.825 411.206 382.836 412.312 381.719 412.937L369.841 419.818C369.21 420.128 368.516 420.285 367.814 420.278C367.111 420.271 366.42 420.099 365.796 419.777L353.856 412.855C352.75 412.21 352.689 411.155 353.795 410.51L365.673 403.639C366.311 403.321 367.014 403.156 367.726 403.156C368.439 403.156 369.142 403.321 369.78 403.639L381.719 410.571ZM356.744 415.241C357.911 415.916 357.86 416.981 356.754 417.606L344.876 424.487C344.24 424.813 343.537 424.982 342.823 424.982C342.109 424.982 341.405 424.813 340.77 424.487L328.891 417.586C327.724 416.91 327.765 415.855 328.881 415.21L340.759 408.339C341.395 408.014 342.099 407.844 342.812 407.844C343.526 407.844 344.23 408.014 344.866 408.339L356.744 415.241ZM429.397 418.425C430.503 419.07 430.462 420.125 429.346 420.77L417.467 427.652C416.841 427.971 416.15 428.139 415.447 428.142C414.745 428.146 414.051 427.985 413.422 427.672L401.483 420.75C400.315 420.074 400.366 419.009 401.472 418.374L413.351 411.493C413.987 411.169 414.691 411.001 415.405 411.003C416.119 411.005 416.822 411.176 417.457 411.503L429.397 418.425ZM325.727 418.261C326.894 418.937 326.905 419.961 325.737 420.637L312.415 428.338C311.781 428.661 311.079 428.83 310.367 428.83C309.655 428.83 308.953 428.661 308.319 428.338L296.103 421.252C294.987 420.606 294.976 419.511 296.092 418.876L309.415 411.165C310.049 410.842 310.751 410.673 311.463 410.673C312.175 410.673 312.877 410.842 313.511 411.165L325.727 418.261ZM412.04 428.153C413.146 428.788 413.146 429.894 412.04 430.519L400.162 437.4C399.53 437.712 398.834 437.871 398.129 437.864C397.425 437.857 396.732 437.684 396.107 437.359L371.459 423.064C370.292 422.388 370.292 421.364 371.397 420.719L383.276 413.848C383.911 413.523 384.615 413.353 385.329 413.353C386.043 413.353 386.747 413.523 387.382 413.848L412.04 428.153ZM335.537 432.782C336.704 433.458 336.704 434.492 335.537 435.157L329.854 438.455C329.22 438.778 328.518 438.947 327.806 438.947C327.094 438.947 326.392 438.778 325.758 438.455L313.531 431.358C312.364 430.683 312.415 429.618 313.531 428.983L319.214 425.696C319.846 425.364 320.549 425.19 321.262 425.19C321.976 425.19 322.679 425.364 323.31 425.696L335.537 432.782ZM394.949 438.035C396.066 438.68 396.066 439.776 394.96 440.411L383.132 447.251C382.498 447.575 381.796 447.743 381.084 447.743C380.372 447.743 379.671 447.575 379.036 447.251L345.767 427.959C344.661 427.314 344.599 426.249 345.767 425.583L357.594 418.732C358.231 418.418 358.933 418.256 359.643 418.257C360.354 418.259 361.054 418.425 361.69 418.743L394.949 438.035ZM360.604 438.485C361.71 439.12 361.772 440.185 360.604 440.851L347.292 448.562C346.655 448.879 345.952 449.044 345.239 449.044C344.527 449.044 343.824 448.879 343.186 448.562L330.919 441.445C329.803 440.8 329.792 439.704 330.908 439.069L344.22 431.358C344.856 431.033 345.56 430.863 346.274 430.863C346.988 430.863 347.691 431.033 348.327 431.358L360.604 438.485ZM370.568 453.098C371.735 453.784 371.746 454.808 370.578 455.474L364.885 458.771C364.251 459.095 363.549 459.263 362.837 459.263C362.125 459.263 361.423 459.095 360.789 458.771L348.572 451.685C347.405 450.999 347.446 449.944 348.562 449.309L354.256 446.012C354.887 445.68 355.59 445.507 356.304 445.507C357.017 445.507 357.72 445.68 358.352 446.012L370.568 453.098ZM190.651 299.764C191.767 300.409 191.767 301.505 190.661 302.14L178.783 309.011C178.152 309.324 177.456 309.484 176.752 309.479C176.047 309.473 175.354 309.303 174.728 308.98L150.07 294.675C148.913 293.999 148.903 292.975 150.009 292.33L161.897 285.459C162.531 285.135 163.233 284.967 163.945 284.967C164.657 284.967 165.359 285.135 165.993 285.459L190.651 299.764ZM259.362 287.026C260.478 287.671 260.427 288.725 259.321 289.371L253.791 292.565C253.168 292.893 252.475 293.065 251.771 293.069C251.067 293.073 250.373 292.907 249.746 292.586L237.806 285.664C236.7 285.029 236.639 283.964 237.806 283.288L243.326 280.093C243.962 279.777 244.663 279.613 245.374 279.613C246.084 279.613 246.785 279.777 247.422 280.093L259.362 287.026ZM241.319 276.56C242.425 277.205 242.435 278.301 241.319 278.936L235.789 282.131C235.155 282.455 234.453 282.623 233.741 282.623C233.029 282.623 232.327 282.455 231.693 282.131L219.764 275.198C218.647 274.553 218.586 273.499 219.753 272.823L225.283 269.628C225.919 269.312 226.62 269.148 227.331 269.148C228.041 269.148 228.742 269.312 229.379 269.628L241.319 276.56ZM246.92 292.811C248.036 293.456 248.036 294.552 246.93 295.187L235.052 302.058C234.414 302.375 233.711 302.541 232.999 302.541C232.286 302.541 231.583 302.375 230.946 302.058L219.006 295.136C217.89 294.491 217.879 293.395 218.996 292.76L230.874 285.879C231.512 285.561 232.215 285.396 232.927 285.396C233.64 285.396 234.342 285.561 234.98 285.879L246.92 292.811ZM229.481 282.704C230.597 283.339 230.608 284.435 229.492 285.07L217.613 291.951C216.975 292.269 216.272 292.434 215.56 292.434C214.848 292.434 214.145 292.269 213.507 291.951L201.567 285.019C200.461 284.373 200.451 283.278 201.567 282.643L213.445 275.772C214.082 275.456 214.783 275.292 215.493 275.292C216.204 275.292 216.905 275.456 217.541 275.772L229.481 282.704ZM143.322 312.472C144.438 313.117 144.5 314.182 143.332 314.848L130.01 322.558C129.373 322.874 128.672 323.039 127.962 323.039C127.251 323.039 126.55 322.874 125.914 322.558L113.974 315.626C112.858 314.981 112.909 313.926 114.015 313.291L127.348 305.581C127.97 305.252 128.662 305.077 129.366 305.072C130.07 305.067 130.765 305.23 131.392 305.55L143.322 312.472ZM160.709 322.558C161.815 323.204 161.877 324.258 160.709 324.934L147.397 332.635C146.76 332.952 146.057 333.117 145.344 333.117C144.632 333.117 143.929 332.952 143.291 332.635L131.351 325.712C130.245 325.067 130.235 323.972 131.351 323.337L144.663 315.626C145.298 315.302 145.999 315.134 146.711 315.134C147.423 315.134 148.125 315.302 148.759 315.626L160.709 322.558ZM349.484 339.291C350.651 339.966 350.6 341.031 349.484 341.666L343.964 344.861C343.333 345.193 342.63 345.366 341.916 345.366C341.203 345.366 340.5 345.193 339.868 344.861L327.99 337.959C326.812 337.284 326.812 336.26 327.97 335.584L333.499 332.389C334.133 332.065 334.835 331.896 335.547 331.896C336.259 331.896 336.961 332.065 337.595 332.389L349.484 339.291ZM331.441 328.825C332.608 329.501 332.557 330.566 331.441 331.201L325.911 334.396C325.28 334.728 324.577 334.901 323.863 334.901C323.15 334.901 322.447 334.728 321.815 334.396L309.937 327.494C308.821 326.849 308.77 325.794 309.927 325.118L315.456 321.924C316.093 321.608 316.794 321.443 317.504 321.443C318.215 321.443 318.916 321.608 319.552 321.924L331.441 328.825ZM316.552 333.188C317.719 333.863 317.668 334.928 316.552 335.563L304.674 342.445C304.039 342.767 303.336 342.934 302.624 342.932C301.912 342.93 301.211 342.759 300.578 342.434L288.689 335.543C287.522 334.867 287.573 333.802 288.689 333.167L300.567 326.296C301.202 325.972 301.903 325.804 302.615 325.804C303.327 325.804 304.029 325.972 304.663 326.296L316.552 333.188ZM457.71 402.052C458.816 402.697 458.765 403.751 457.659 404.397L452.13 407.591C451.506 407.919 450.814 408.091 450.11 408.095C449.406 408.098 448.711 407.933 448.085 407.612L436.145 400.69C434.978 400.014 434.978 398.99 436.145 398.314L441.675 395.119C442.309 394.795 443.011 394.627 443.723 394.627C444.435 394.627 445.136 394.795 445.771 395.119L457.71 402.052ZM321.928 395.037C323.095 395.723 323.054 396.778 321.938 397.423L310.06 404.294C309.424 404.619 308.721 404.789 308.007 404.789C307.293 404.789 306.589 404.619 305.954 404.294L294.075 397.403C292.908 396.727 292.949 395.662 294.065 395.027L305.943 388.146C306.579 387.82 307.283 387.651 307.996 387.651C308.71 387.651 309.414 387.82 310.05 388.146L321.928 395.037Z" fill="#5B5E71"/>
<path d="M266.161 416.592C268.199 417.77 268.209 419.623 266.192 420.791L213.968 451.142C212.847 451.72 211.604 452.022 210.343 452.022C209.081 452.022 207.839 451.72 206.718 451.142L116.442 399.092C114.445 397.945 114.394 396.071 116.421 394.894L168.645 364.542C169.768 363.969 171.01 363.67 172.27 363.67C173.531 363.67 174.773 363.969 175.895 364.542L266.161 416.592Z" fill="#979BA2"/>
<path d="M457.68 425.828L457.7 432.382L472.343 423.934L472.333 417.37L457.68 425.828ZM440.497 435.751L440.517 442.305L455.161 433.857L455.14 427.293L440.497 435.751Z" fill="#5B5E71"/>
<path d="M239.086 94.5948V97.2879L230.475 92.3215V89.6284L239.086 94.5948Z" fill="#EF1818"/>
<path d="M295.509 141.863V144.546L238.216 111.471L238.226 108.788L295.509 141.863ZM255.798 111.594L255.788 114.266L238.247 104.129V101.466L255.798 111.594ZM259.546 99.07L259.536 101.763L230.495 85.0002V82.3071L259.546 99.07Z" fill="#9FA7BF"/>
<path d="M259.566 91.7482L259.556 94.4414L230.516 77.6785V74.9854L259.566 91.7482Z" fill="#00A57C"/>
<path d="M338.251 166.531V169.224L299.154 146.655V143.972L338.251 166.531ZM256.392 126.616V129.309L238.196 118.802L238.206 116.109L256.392 126.616ZM237.428 145.017L237.417 147.7L230.331 143.604V140.921L237.428 145.017Z" fill="#EF1818"/>
<path d="M269.325 207.481V210.164L254.805 201.787V199.094L269.325 207.481Z" fill="#3C5DD6"/>
<path d="M244.995 186.09L244.985 188.783L230.219 180.263L230.229 177.57L244.995 186.09Z" fill="#EF1818"/>
<path d="M252.112 197.538V200.221L230.198 187.585L230.208 184.892L252.112 197.538Z" fill="#9FA7BF"/>
<path d="M267.164 198.89V201.583L247.258 190.094V187.4L267.164 198.89Z" fill="#00A57C"/>
<path d="M253.719 161.769V164.442L230.311 150.925V148.263L253.719 161.769ZM272.11 187.062V189.745L230.27 165.599V162.906L272.11 187.062ZM277.036 182.567L277.026 185.26L230.28 158.278V155.584L277.036 182.567ZM271.035 164.432V167.115L240.561 149.512V146.829L271.035 164.432ZM271.066 157.1V159.793L230.352 136.292V133.599L271.066 157.1Z" fill="#9FA7BF"/>
<path d="M286.037 180.437V183.099L256.085 165.814V163.152L286.037 180.437Z" fill="#3C5DD6"/>
<path d="M267.226 147.546V150.239L238.155 133.466L238.165 130.773L267.226 147.546Z" fill="#9FA7BF"/>
<path d="M264.133 138.422V141.105L238.175 126.124L238.185 123.431L264.133 138.422Z" fill="#3C5DD6"/>
<path d="M310.091 157.612V160.305L259.054 130.845L259.065 128.152L310.091 157.612ZM316.398 168.589L316.388 171.272L267.236 142.907V140.214L316.398 168.589ZM338.23 173.853V176.546L315.958 163.695L315.968 161.002L338.23 173.853ZM338.271 159.21V161.882L284.101 130.619L284.122 127.957L338.271 159.21Z" fill="#9FA7BF"/>
<path d="M281.91 126.677V129.339L262.085 117.901L262.096 115.239L281.91 126.677Z" fill="#00A57C"/>
<path d="M338.21 181.185V183.868L320.249 173.505V170.812L338.21 181.185Z" fill="#9FA7BF"/>
<path d="M266.949 242.798V245.481L237.888 228.708V226.015L266.949 242.798Z" fill="#3C5DD6"/>
<path d="M278.674 242.225V244.918L237.919 221.387V218.694L278.674 242.225ZM258.501 223.25V225.933L237.929 214.055V211.372L258.501 223.25ZM287.01 232.364L286.999 235.037L257.959 218.274V215.601L287.01 232.364ZM305.728 235.825V238.518L282.32 225.002V222.319L305.728 235.825Z" fill="#9FA7BF"/>
<path d="M346.842 230.214V232.897L291.208 200.784V198.101L346.842 230.214Z" fill="#EF1818"/>
<path d="M279.739 220.823V223.517L267.984 216.727L267.994 214.034L279.739 220.823ZM302.032 211.669V214.362L277.046 199.944L277.056 197.251L302.032 211.669Z" fill="#9FA7BF"/>
<path d="M415.092 269.607V272.3L388.611 257.011V254.329L415.092 269.607Z" fill="#00A57C"/>
<path d="M320.064 236.767V239.46L289.774 221.97V219.288L320.064 236.767Z" fill="#9FA7BF"/>
<path d="M340.933 241.477L340.923 244.17L288.238 213.758V211.064L340.933 241.477Z" fill="#EF1818"/>
<path d="M358.536 258.977V261.671L324.109 241.805V239.102L358.536 258.977Z" fill="#B6BED7"/>
<path d="M370.076 272.976V275.669L309.046 240.433V237.74L370.076 272.976Z" fill="#00A57C"/>
<path d="M391.386 285.274V287.967L375.033 278.526V275.843L391.386 285.274Z" fill="#EF1818"/>
<path d="M378.596 255.875V258.568L306.435 216.901V214.218L378.596 255.875ZM385.129 252.311V255.004L349.044 234.166V231.483L385.129 252.311ZM401.708 276.57V279.263L344.046 245.983V243.279L401.708 276.57ZM415.03 291.592V294.285L361.925 263.637L361.936 260.943L415.03 291.592ZM415.051 284.27V286.963L404.729 281.004V278.321L415.051 284.27ZM415.071 276.928V279.621L381.238 260.094V257.4L415.071 276.928ZM327.324 211.607V214.29L280.917 187.502L280.927 184.819L327.324 211.607Z" fill="#B6BED7"/>
</g>
<defs>
<filter id="filter0_d_48_6" x="0.261139" y="0.445312" width="527.692" height="551.102" filterUnits="userSpaceOnUse" color-interpolation-filters="sRGB">
<feFlood flood-opacity="0" result="BackgroundImageFix"/>
<feColorMatrix in="SourceAlpha" type="matrix" values="0 0 0 0 0 0 0 0 0 0 0 0 0 0 0 0 0 0 127 0" result="hardAlpha"/>
<feOffset dx="9" dy="2"/>
<feGaussianBlur stdDeviation="15"/>
<feComposite in2="hardAlpha" operator="out"/>
<feColorMatrix type="matrix" values="0 0 0 0 0.298039 0 0 0 0 0.0627451 0 0 0 0 0.678431 0 0 0 1 0"/>
<feBlend mode="normal" in2="BackgroundImageFix" result="effect1_dropShadow_48_6"/>
<feBlend mode="normal" in="SourceGraphic" in2="effect1_dropShadow_48_6" result="shape"/>
</filter>
</defs>
</svg>
