<svg width="123" height="150" viewBox="0 0 123 150" fill="none" xmlns="http://www.w3.org/2000/svg">
<g filter="url(#filter0_d_48_67)">
<path d="M83.0621 61.9611L82.9597 108.051C82.9187 109.823 82.3043 111.041 81.3315 111.625L71.1632 117.534C72.136 116.96 72.7914 115.731 72.7914 113.97L72.8938 67.8798C72.9347 64.347 70.4054 60.0155 67.3437 58.2542L27.2438 35.1015C25.6976 34.2004 24.2845 34.1287 23.2502 34.7022L33.4083 28.7937C34.4528 28.21 35.8659 28.2817 37.4122 29.1828L77.512 52.3355C80.584 54.1377 83.103 58.4283 83.0621 61.9611Z" fill="#F14343"/>
<path d="M67.3232 58.2542C70.4157 60.036 72.9245 64.3368 72.9143 67.8798L72.7811 113.97C72.7709 117.513 70.2519 118.926 67.1696 117.144L27.08 93.9918C23.9978 92.2101 21.4992 87.899 21.5095 84.356L21.6323 38.276C21.6426 34.7227 24.1616 33.3198 27.2439 35.1016L67.3232 58.2542Z" fill="#EF1818"/>
<path d="M35.4973 63.0159L35.4563 75.8261L32.8656 74.3311L32.8758 69.0677L27.807 66.1391L27.7866 71.4025L25.2266 69.9177L25.2573 57.1074L27.8275 58.5922L27.8173 63.6405L32.8861 66.5692L32.8963 61.5209L35.4973 63.0159ZM46.5872 69.4159V71.8428L43.0032 69.7743L42.9827 80.1679L40.4125 78.6933L40.4432 68.2997L36.8592 66.2313L36.8694 63.8044L46.5872 69.4159ZM60.5238 77.4646V90.2953L58.1072 88.9026L58.097 81.2021L54.8099 85.6668L53.6426 84.9909L50.3965 76.9218L50.376 84.438L47.9594 83.0454L48.0003 70.2351L50.0995 71.4434L54.2672 81.837L58.4144 76.246L60.5238 77.4646ZM65.7872 80.4956L65.7462 90.8892L71.3475 94.125L71.3373 96.5417L63.176 91.8313L63.217 79.021L65.7872 80.4956Z" fill="white"/>
</g>
<defs>
<filter id="filter0_d_48_67" x="0.50943" y="0.417969" width="121.553" height="149.497" filterUnits="userSpaceOnUse" color-interpolation-filters="sRGB">
<feFlood flood-opacity="0" result="BackgroundImageFix"/>
<feColorMatrix in="SourceAlpha" type="matrix" values="0 0 0 0 0 0 0 0 0 0 0 0 0 0 0 0 0 0 127 0" result="hardAlpha"/>
<feOffset dx="9" dy="2"/>
<feGaussianBlur stdDeviation="15"/>
<feComposite in2="hardAlpha" operator="out"/>
<feColorMatrix type="matrix" values="0 0 0 0 0.298039 0 0 0 0 0.0627451 0 0 0 0 0.678431 0 0 0 1 0"/>
<feBlend mode="normal" in2="BackgroundImageFix" result="effect1_dropShadow_48_67"/>
<feBlend mode="normal" in="SourceGraphic" in2="effect1_dropShadow_48_67" result="shape"/>
</filter>
</defs>
</svg>
