<svg width="122" height="150" viewBox="0 0 122 150" fill="none" xmlns="http://www.w3.org/2000/svg">
<g filter="url(#filter0_d_48_60)">
<path d="M82.5527 61.5482L82.4503 107.628C82.4093 109.4 81.7949 110.629 80.8221 111.212L70.6538 117.121C71.6266 116.537 72.2819 115.318 72.2819 113.547L72.3843 67.467C72.4253 63.9239 69.896 59.6026 66.8343 57.8414L26.7344 34.6785C25.1882 33.7774 23.7751 33.7057 22.7408 34.2894L32.8989 28.3706C33.9434 27.7972 35.3565 27.8586 36.9027 28.77L77.0026 51.9124C80.0746 53.7249 82.5936 58.0257 82.5527 61.5482Z" fill="#03C192"/>
<path d="M66.824 57.831C69.9063 59.6127 72.4048 63.9238 72.4048 67.4566L72.2717 113.547C72.2615 117.1 69.7424 118.503 66.6602 116.721L26.5706 93.5788C23.4883 91.7971 20.9898 87.4962 21 83.9532L21.1229 37.863C21.1331 34.3199 23.6522 32.9068 26.7344 34.6886L66.824 57.831Z" fill="#00A57C"/>
<path d="M36.3805 66.4429C36.8235 67.464 37.0501 68.5658 37.0461 69.6788C37.0461 70.7847 36.8311 71.6346 36.3703 72.1876C35.9095 72.7303 35.2644 72.976 34.4247 72.8941C33.3582 72.7721 32.3346 72.404 31.4346 71.8189L28.8234 70.3137L28.8029 74.4199L25.8333 72.6996L25.8743 57.8516L31.4653 61.0772C32.602 61.7325 33.5953 62.5108 34.4349 63.4529C35.2951 64.3847 35.93 65.3677 36.3805 66.4429ZM33.329 69.4432C33.7898 69.2692 34.0458 68.7981 34.0458 67.9482C34.0385 67.1201 33.7893 66.3122 33.329 65.6237C32.802 64.8557 32.1001 64.224 31.281 63.7805L28.8439 62.3777L28.8234 67.5488L31.2708 68.9517C32.1514 69.4637 32.8784 69.6276 33.329 69.4432ZM51.0544 72.3821L51.0135 87.2404L48.0439 85.5201L48.0541 79.417L42.1764 76.0276L42.1559 82.1306L39.1453 80.3898L39.1863 65.5418L42.1969 67.2826L42.1866 73.1399L48.0644 76.5293L48.0746 70.6721L51.0544 72.3821ZM64.6429 82.7655C65.0856 83.7867 65.3122 84.8884 65.3085 86.0013C65.3085 87.097 65.0935 87.9469 64.6327 88.4999C64.1616 89.0426 63.5268 89.2884 62.6769 89.2064C61.6183 89.0844 60.6021 88.72 59.7072 88.1415L57.0756 86.626V90.7424L54.0957 89.0221L54.1367 74.1741L59.7277 77.3997C60.8541 78.0551 61.8576 78.8333 62.6973 79.7652C63.5472 80.7073 64.1924 81.68 64.6429 82.7655ZM61.5812 85.7658C62.0522 85.5815 62.298 85.1104 62.298 84.2605C62.2967 83.4345 62.0548 82.6267 61.6017 81.9361C61.0768 81.1689 60.3741 80.54 59.5537 80.1031L57.096 78.69V83.8612L59.5331 85.2743C60.4547 85.8068 61.1204 85.9501 61.5812 85.7658Z" fill="white"/>
</g>
<defs>
<filter id="filter0_d_48_60" x="0" y="0" width="121.553" height="149.493" filterUnits="userSpaceOnUse" color-interpolation-filters="sRGB">
<feFlood flood-opacity="0" result="BackgroundImageFix"/>
<feColorMatrix in="SourceAlpha" type="matrix" values="0 0 0 0 0 0 0 0 0 0 0 0 0 0 0 0 0 0 127 0" result="hardAlpha"/>
<feOffset dx="9" dy="2"/>
<feGaussianBlur stdDeviation="15"/>
<feComposite in2="hardAlpha" operator="out"/>
<feColorMatrix type="matrix" values="0 0 0 0 0.298039 0 0 0 0 0.0627451 0 0 0 0 0.678431 0 0 0 1 0"/>
<feBlend mode="normal" in2="BackgroundImageFix" result="effect1_dropShadow_48_60"/>
<feBlend mode="normal" in="SourceGraphic" in2="effect1_dropShadow_48_60" result="shape"/>
</filter>
</defs>
</svg>
