<svg width="357" height="434" viewBox="0 0 357 434" fill="none" xmlns="http://www.w3.org/2000/svg">
<g filter="url(#filter0_d_125_794)">
<path d="M47.9985 432L29.9987 420L11.999 432V372H47.9985V432Z" fill="#4C10AD"/>
</g>
<g filter="url(#filter1_d_125_794)">
<path d="M288 140.124H347.999V396H288V140.124Z" fill="#09B489"/>
<path d="M288 140.124H347.999V316.8H288V140.124Z" fill="#059571"/>
<path d="M288 140.124H347.999V237.6H288V140.124Z" fill="#045944"/>
<path d="M288 79.2003H347.999V158.401H288V79.2003Z" fill="#063D2F"/>
<path d="M288 0H347.999V79.2003H288V0Z" fill="black"/>
</g>
<path d="M11.9995 0H324V396H11.9995V0Z" fill="#A5A4A6"/>
<path d="M-0.000976562 0H167.999V396H-0.000976562V0Z" fill="#7A7A7A"/>
<path d="M56.2104 185.649V132.076H79.2997C81.9153 132.076 84.3293 132.616 86.5441 133.698C88.7573 134.781 90.6566 136.188 92.2403 137.924C93.8317 139.671 95.0966 141.691 95.9747 143.886C96.8809 146.125 97.3331 148.375 97.3331 150.639C97.3341 153 96.8996 155.34 96.0515 157.543C95.1951 159.781 94.0003 161.769 92.4672 163.505C90.9325 165.241 89.0728 166.625 86.8833 167.655C84.6955 168.686 82.2933 169.201 79.6777 169.201H70.9246V185.651H56.2104V185.649ZM70.9246 156.373H78.6972C79.6034 156.373 80.4446 155.958 81.2243 155.128C82.0031 154.298 82.3945 152.801 82.3945 150.638C82.3945 148.425 81.9423 146.915 81.0361 146.11C80.1299 145.306 79.2254 144.902 78.3192 144.902H70.9246V156.373ZM128.497 186.102C124.423 186.102 120.724 185.322 117.404 183.763C114.084 182.204 111.241 180.154 108.878 177.613C106.513 175.074 104.677 172.168 103.37 168.897C102.072 165.684 101.406 162.251 101.408 158.785C101.408 155.264 102.087 151.868 103.445 148.6C104.804 145.329 106.702 142.449 109.143 139.96C111.582 137.47 114.474 135.483 117.819 133.998C121.165 132.514 124.825 131.773 128.798 131.773C132.872 131.773 136.571 132.552 139.89 134.112C143.212 135.672 146.052 137.733 148.417 140.299C150.771 142.849 152.627 145.818 153.888 149.052C155.17 152.323 155.813 155.668 155.813 159.087C155.813 162.609 155.133 165.991 153.775 169.236C152.417 172.481 150.53 175.349 148.116 177.839C145.701 180.329 142.821 182.328 139.476 183.838C136.129 185.347 132.47 186.102 128.497 186.102ZM116.348 158.937C116.348 160.748 116.598 162.496 117.103 164.181C117.604 165.867 118.359 167.362 119.366 168.671C120.373 169.98 121.642 171.036 123.177 171.842C124.711 172.646 126.534 173.049 128.648 173.049C130.762 173.049 132.598 172.634 134.157 171.804C135.715 170.974 136.985 169.893 137.968 168.56C138.949 167.228 139.677 165.706 140.156 163.994C140.633 162.284 140.873 160.549 140.873 158.787C140.873 156.976 140.62 155.229 140.118 153.543C139.614 151.858 138.846 150.374 137.816 149.091C136.784 147.809 135.502 146.778 133.968 145.998C132.433 145.22 130.636 144.828 128.573 144.828C126.459 144.828 124.637 145.231 123.102 146.035C121.567 146.84 120.297 147.911 119.291 149.243C118.284 150.576 117.543 152.086 117.066 153.77C116.587 155.451 116.345 157.19 116.348 158.937ZM163.207 185.649V132.076H187.806C190.421 132.076 192.836 132.616 195.05 133.698C197.264 134.781 199.163 136.188 200.747 137.924C202.331 139.659 203.576 141.649 204.482 143.886C205.388 146.125 205.84 148.375 205.84 150.639C205.84 153.759 205.162 156.664 203.803 159.355C202.445 162.046 200.558 164.247 198.143 165.957L209.462 185.652H192.862L183.429 169.201H177.921V185.651L163.207 185.649ZM177.921 156.373H187.202C188.106 156.373 188.949 155.87 189.729 154.864C190.508 153.858 190.899 152.448 190.899 150.638C190.899 148.777 190.447 147.356 189.541 146.375C188.634 145.394 187.73 144.902 186.824 144.902H177.92V156.373H177.921ZM256.244 144.902H240.852V185.649H226.137V144.902H210.668V132.076H256.244V144.902ZM56.2104 251.773V198.199H92.9583V211.026H70.9255V219.93H88.8847V231.853H70.9255V251.774L56.2104 251.773ZM123.291 252.226C119.216 252.226 115.518 251.448 112.198 249.888C108.878 248.329 106.035 246.279 103.672 243.737C101.307 241.199 99.4712 238.293 98.1642 235.022C96.8664 231.808 96.2003 228.375 96.2025 224.91C96.2025 221.389 96.8809 217.993 98.2385 214.724C99.5969 211.454 101.495 208.574 103.936 206.084C106.375 203.594 109.267 201.608 112.613 200.122C115.958 198.639 119.618 197.897 123.591 197.897C127.667 197.897 131.364 198.676 134.683 200.235C138.005 201.795 140.845 203.857 143.21 206.423C145.565 208.973 147.42 211.942 148.681 215.176C149.963 218.446 150.606 221.791 150.606 225.211C150.606 228.733 149.927 232.115 148.568 235.36C147.21 238.605 145.323 241.473 142.909 243.963C140.495 246.453 137.615 248.452 134.269 249.962C130.925 251.472 127.264 252.226 123.291 252.226ZM111.143 225.063C111.143 226.873 111.393 228.622 111.898 230.307C112.399 231.992 113.154 233.488 114.161 234.796C115.167 236.106 116.436 237.161 117.972 237.967C119.506 238.772 121.329 239.174 123.443 239.174C125.557 239.174 127.393 238.759 128.952 237.929C130.51 237.1 131.78 236.019 132.763 234.686C133.743 233.353 134.472 231.831 134.951 230.119C135.428 228.409 135.668 226.674 135.668 224.913C135.668 223.102 135.415 221.354 134.913 219.669C134.409 217.984 133.642 216.5 132.611 215.217C131.579 213.935 130.297 212.903 128.763 212.123C127.228 211.344 125.43 210.953 123.368 210.953C121.254 210.953 119.432 211.356 117.897 212.16C116.362 212.965 115.092 214.036 114.086 215.368C113.079 216.701 112.338 218.211 111.86 219.895C111.381 221.576 111.14 223.315 111.143 225.063ZM158.001 251.773V198.199H172.715V238.947H197.012V251.773H158.001ZM203.275 251.773V198.199H217.989V251.773H203.275ZM252.472 252.226C248.398 252.226 244.699 251.448 241.379 249.888C238.059 248.329 235.215 246.279 232.853 243.737C230.488 241.199 228.652 238.293 227.345 235.022C226.047 231.808 225.381 228.375 225.383 224.91C225.383 221.389 226.062 217.993 227.42 214.724C228.778 211.454 230.677 208.574 233.118 206.084C235.556 203.594 238.449 201.608 241.794 200.122C245.14 198.639 248.8 197.897 252.773 197.897C256.848 197.897 260.546 198.676 263.865 200.235C267.187 201.795 270.027 203.857 272.392 206.423C274.746 208.973 276.602 211.942 277.863 215.176C279.144 218.446 279.786 221.791 279.786 225.211C279.786 228.733 279.107 232.115 277.749 235.36C276.39 238.605 274.504 241.473 272.09 243.963C269.675 246.453 266.795 248.452 263.45 249.962C260.104 251.472 256.445 252.226 252.472 252.226ZM240.323 225.063C240.323 226.873 240.574 228.622 241.079 230.307C241.581 231.992 242.335 233.488 243.342 234.796C244.348 236.106 245.617 237.161 247.153 237.967C248.687 238.772 250.51 239.174 252.624 239.174C254.737 239.174 256.573 238.759 258.132 237.929C259.691 237.1 260.961 236.019 261.944 234.686C262.924 233.353 263.652 231.831 264.132 230.119C264.608 228.409 264.849 226.674 264.849 224.913C264.849 223.102 264.596 221.354 264.094 219.669C263.59 217.984 262.823 216.5 261.792 215.217C260.76 213.935 259.477 212.903 257.943 212.123C256.409 211.344 254.611 210.953 252.549 210.953C250.435 210.953 248.612 211.356 247.078 212.16C245.543 212.965 244.272 214.036 243.266 215.368C242.26 216.701 241.518 218.211 241.041 219.895C240.563 221.576 240.321 223.315 240.323 225.063Z" fill="white"/>
<defs>
<filter id="filter0_d_125_794" x="11.999" y="372" width="41.9995" height="61.9999" filterUnits="userSpaceOnUse" color-interpolation-filters="sRGB">
<feFlood flood-opacity="0" result="BackgroundImageFix"/>
<feColorMatrix in="SourceAlpha" type="matrix" values="0 0 0 0 0 0 0 0 0 0 0 0 0 0 0 0 0 0 127 0" result="hardAlpha"/>
<feOffset dx="6" dy="2"/>
<feComposite in2="hardAlpha" operator="out"/>
<feColorMatrix type="matrix" values="0 0 0 0 0.0352941 0 0 0 0 0.705882 0 0 0 0 0.537255 0 0 0 1 0"/>
<feBlend mode="normal" in2="BackgroundImageFix" result="effect1_dropShadow_125_794"/>
<feBlend mode="normal" in="SourceGraphic" in2="effect1_dropShadow_125_794" result="shape"/>
</filter>
<filter id="filter1_d_125_794" x="288" y="0" width="69" height="396" filterUnits="userSpaceOnUse" color-interpolation-filters="sRGB">
<feFlood flood-opacity="0" result="BackgroundImageFix"/>
<feColorMatrix in="SourceAlpha" type="matrix" values="0 0 0 0 0 0 0 0 0 0 0 0 0 0 0 0 0 0 127 0" result="hardAlpha"/>
<feOffset dx="9"/>
<feComposite in2="hardAlpha" operator="out"/>
<feColorMatrix type="matrix" values="0 0 0 0 0.298039 0 0 0 0 0.0627451 0 0 0 0 0.678431 0 0 0 1 0"/>
<feBlend mode="normal" in2="BackgroundImageFix" result="effect1_dropShadow_125_794"/>
<feBlend mode="normal" in="SourceGraphic" in2="effect1_dropShadow_125_794" result="shape"/>
</filter>
</defs>
</svg>
