<svg width="341" height="458" viewBox="0 0 341 458" fill="none" xmlns="http://www.w3.org/2000/svg">
<g filter="url(#filter0_d_123_36)">
<g filter="url(#filter1_d_123_36)">
<path d="M301.121 31.9884L256.652 6.51372C254.707 5.09468 252.612 3.89321 250.405 2.93085L249.749 2.56006L249.721 2.61555C237.757 -2.24793 222.304 -0.489081 205.445 9.24051L68.4735 88.3076C30.8129 110.053 0 163.427 0 206.916V365.064C0 386.269 7.36391 401.309 19.2416 408.691L19.1271 408.899L68.5501 436.899L96.3421 388.512L205.445 325.526C243.099 303.784 273.919 250.41 273.919 206.918V79.3443L301.121 31.9884Z" fill="#323738"/>
<path d="M301.122 31.9884L253.52 20.8223C251.574 19.407 241.854 19.4413 239.638 18.4743L236.11 17.0624L229.756 15.8831C217.792 11.0196 222.305 -0.492593 205.446 9.237L68.4745 88.3076C30.8138 110.053 0.000976562 163.427 0.000976562 206.916V365.064C0.000976562 386.269 7.36489 401.309 19.2426 408.691L19.1281 408.899L68.5511 436.899L96.343 388.512L205.446 325.526C243.1 303.784 273.92 250.41 273.92 206.918V79.3443L301.122 31.9884Z" fill="#252B2D"/>
<path d="M2.60876 184.133C0.946799 191.875 0 199.545 0 206.916V365.064C0 386.269 7.36391 401.309 19.2416 408.691L19.1271 408.899L68.5501 436.899L96.3421 388.512L205.445 325.526C211.842 321.835 218.027 317.166 223.907 311.842L2.60876 184.133Z" fill="#090C0C"/>
<path d="M115.548 115.604C77.8878 137.349 47.0679 190.723 47.0679 234.212V392.36C47.0679 435.849 77.8878 453.64 115.548 431.894L252.51 352.824C290.17 331.078 320.99 277.707 320.99 234.212V76.0697C320.99 32.5785 290.17 14.7936 252.51 36.5357L115.548 115.604Z" fill="#3B4142"/>
<path opacity="0.2" d="M320.99 76.0697C320.99 32.5785 290.17 14.7936 252.51 36.5357L115.548 115.603C77.8878 137.348 47.0679 190.722 47.0679 234.211V392.359C47.0679 435.848 77.8878 453.639 115.548 431.893" fill="#383E3F"/>
<path d="M48.0113 222.331L320.058 65.2682C320.491 61.976 320.762 58.719 320.879 55.5069L47.186 213.524C47.3041 216.597 47.5815 219.535 48.0113 222.331Z" fill="#3B4142"/>
<path d="M85.1273 444H85.1203C60.2903 444 44.2476 423.729 44.2476 392.36V234.212C44.2476 189.714 75.595 135.407 114.129 113.162L251.098 34.0881C262.201 27.678 272.913 24.4342 282.934 24.4342C307.763 24.4342 323.814 44.7055 323.814 76.0706V234.215C323.814 278.719 292.459 333.023 253.925 355.268L116.957 434.343C105.853 440.747 95.1485 444 85.1273 444ZM282.937 30.0807C273.919 30.0807 264.157 33.0743 253.928 38.9745L116.957 118.049C79.9794 139.402 49.8914 191.511 49.8914 234.211V392.359C49.8914 420.727 63.3888 438.348 85.1203 438.348H85.1273C94.1462 438.348 103.9 435.355 114.129 429.455L251.098 350.38C288.075 329.03 318.163 276.915 318.163 234.214V76.0697C318.166 47.7026 304.67 30.0807 282.937 30.0807Z" fill="#4F5759"/>
<path d="M101.573 159.966C101.576 156.321 104.15 151.849 107.306 150.031C110.463 148.21 113.044 149.695 113.04 153.34C113.044 156.985 110.459 161.457 107.306 163.278C104.153 165.096 101.576 163.608 101.573 159.966Z" fill="#FF4D8D"/>
<path d="M107.31 163.278C104.153 165.093 101.58 163.608 101.576 159.966C101.58 156.321 104.153 151.849 107.31 150.031" fill="#EA2864"/>
<path d="M126.013 145.994C126.013 142.345 128.59 137.88 131.743 136.059C134.9 134.238 137.48 135.726 137.48 139.371C137.48 143.01 134.9 147.481 131.743 149.303C128.595 151.124 126.013 149.636 126.013 145.994Z" fill="#F7D011"/>
<path d="M131.748 149.303C128.595 151.124 126.018 149.636 126.018 145.994C126.018 142.345 128.595 137.88 131.748 136.059" fill="#F4B414"/>
<path d="M150.452 132.022C150.452 128.376 153.032 123.905 156.185 122.083C159.342 120.262 161.919 121.75 161.919 125.396C161.919 129.041 159.338 133.506 156.185 135.327C153.032 137.148 150.452 135.656 150.452 132.022Z" fill="#15EAA8"/>
<path d="M156.189 135.327C153.036 137.148 150.455 135.66 150.455 132.022C150.455 128.376 153.036 123.905 156.189 122.083" fill="#08C1B3"/>
<path d="M172.537 280.364C170.796 280.364 169.026 279.923 167.41 278.99L114.026 248.17C109.114 245.332 107.435 239.044 110.266 234.132C113.103 229.216 119.378 227.534 124.304 230.372L177.685 261.192C182.604 264.029 184.283 270.318 181.445 275.23C179.544 278.526 176.093 280.364 172.537 280.364Z" fill="white"/>
<path d="M119.16 372.831C117.419 372.831 115.653 372.388 114.029 371.457C109.118 368.62 107.439 362.335 110.27 357.423L163.651 264.955C166.488 260.04 172.753 258.354 177.689 261.192C182.608 264.029 184.287 270.311 181.449 275.23L128.068 367.694C127.165 369.258 125.867 370.556 124.303 371.458C122.739 372.36 120.965 372.834 119.16 372.831ZM190.36 331.737C188.554 331.739 186.78 331.266 185.215 330.364C183.651 329.462 182.352 328.163 181.449 326.599C178.618 321.687 180.297 315.402 185.216 312.565L256.398 271.47C261.317 268.619 267.599 270.318 270.437 275.23C273.267 280.149 271.589 286.43 266.67 289.268L195.487 330.363C193.928 331.263 192.16 331.737 190.36 331.737Z" fill="white"/>
</g>
</g>
<defs>
<filter id="filter0_d_123_36" x="0" y="0" width="340.813" height="458" filterUnits="userSpaceOnUse" color-interpolation-filters="sRGB">
<feFlood flood-opacity="0" result="BackgroundImageFix"/>
<feColorMatrix in="SourceAlpha" type="matrix" values="0 0 0 0 0 0 0 0 0 0 0 0 0 0 0 0 0 0 127 0" result="hardAlpha"/>
<feOffset dx="10" dy="7"/>
<feGaussianBlur stdDeviation="3.5"/>
<feComposite in2="hardAlpha" operator="out"/>
<feColorMatrix type="matrix" values="0 0 0 0 0.298039 0 0 0 0 0.0627451 0 0 0 0 0.678431 0 0 0 1 0"/>
<feBlend mode="normal" in2="BackgroundImageFix" result="effect1_dropShadow_123_36"/>
<feBlend mode="normal" in="SourceGraphic" in2="effect1_dropShadow_123_36" result="shape"/>
</filter>
<filter id="filter1_d_123_36" x="0" y="0" width="330.813" height="448" filterUnits="userSpaceOnUse" color-interpolation-filters="sRGB">
<feFlood flood-opacity="0" result="BackgroundImageFix"/>
<feColorMatrix in="SourceAlpha" type="matrix" values="0 0 0 0 0 0 0 0 0 0 0 0 0 0 0 0 0 0 127 0" result="hardAlpha"/>
<feOffset dx="7" dy="4"/>
<feComposite in2="hardAlpha" operator="out"/>
<feColorMatrix type="matrix" values="0 0 0 0 0.0196078 0 0 0 0 0.584314 0 0 0 0 0.443137 0 0 0 1 0"/>
<feBlend mode="normal" in2="BackgroundImageFix" result="effect1_dropShadow_123_36"/>
<feBlend mode="normal" in="SourceGraphic" in2="effect1_dropShadow_123_36" result="shape"/>
</filter>
</defs>
</svg>
