<svg width="23" height="23" viewBox="0 0 23 23" fill="none" xmlns="http://www.w3.org/2000/svg">
<path d="M13.3188 6.87179L16.7412 10.3211C17.2667 9.93038 17.6305 10.0921 18.1964 10.0921C19.436 10.0921 20.6082 9.607 21.4975 8.7312C22.4811 7.73413 22.9662 6.34631 22.8314 4.97197L20.0693 7.73413C19.975 7.81497 19.8402 7.81497 19.7459 7.73413L15.8924 3.86711C15.7981 3.78626 15.7981 3.63805 15.8924 3.55721L18.6545 0.781577C15.7037 0.498624 13.238 2.97783 13.5614 5.94209C13.6018 6.27894 13.5075 6.60231 13.3188 6.87179Z" fill="#9AB8D4"/>
<path d="M16.4045 10.6174L13.0091 7.2085L1.46192 18.7557C0.532223 19.6854 0.532223 21.2214 1.46192 22.1511C2.4051 23.0943 3.92765 23.0943 4.87083 22.1511L16.4045 10.6174ZM11.7425 10.321L13.3055 11.884C13.3864 11.9648 13.3864 12.113 13.3055 12.1939L11.6752 13.8242L7.83509 17.6643C7.74078 17.7586 7.60604 17.7586 7.51172 17.6643L5.96222 16.1013C5.8679 16.0204 5.8679 15.8722 5.96222 15.7914L11.4192 10.321C11.5135 10.2401 11.6482 10.2401 11.7425 10.321ZM2.93058 18.8096C3.45607 18.2975 4.29145 18.2975 4.81693 18.8096C5.65232 19.6449 5.04599 21.0732 3.87376 21.0732C2.70153 21.0732 2.10867 19.6449 2.93058 18.8096Z" fill="#174271"/>
<path d="M12.8205 12.0458L11.5809 10.7927L10.2739 12.0997L11.5135 13.3393L12.8205 12.0458ZM11.2036 13.6627L9.96401 12.4231L8.05071 14.3229L9.29031 15.5625L11.2036 13.6627ZM8.98041 15.8859L7.74081 14.6463L6.43384 15.9532L7.67344 17.1928L8.98041 15.8859Z" fill="#9AB8D4"/>
<path d="M2.84974 23C2.08172 23 1.3676 22.7036 0.828647 22.1646C-0.276216 21.0463 -0.276216 19.2408 0.828647 18.1224L12.5375 6.41359C12.7396 6.21148 12.8339 5.942 12.807 5.67252C12.6453 4.14997 13.1438 2.65436 14.1948 1.56298C15.1649 0.552431 16.4719 0 17.8866 0C18.21 0 18.5334 0.0269479 18.8568 0.0943175C18.9376 0.107791 19.005 0.175161 19.0319 0.256005C19.0589 0.323374 19.0319 0.417692 18.978 0.471588L16.0542 3.39543L19.5978 6.93907L22.5217 4.01523C22.5756 3.96134 22.6699 3.93439 22.7373 3.96134C22.8181 3.98828 22.8855 4.05565 22.8989 4.1365C23.2223 5.80726 22.6968 7.51845 21.4977 8.73111C20.5275 9.68776 19.2475 10.2267 17.8866 10.2267C17.698 10.2267 17.4959 10.2132 17.3207 10.1998C17.0513 10.1593 16.7683 10.2671 16.5797 10.4558L16.5662 10.4692L4.87083 22.1646C4.33187 22.7036 3.61775 23 2.84974 23ZM8.67048 15.5759L7.4174 14.3228L6.1239 15.6298L7.3635 16.8694L8.67048 15.5759ZM7.74077 14.0129L8.98038 15.2525L10.8937 13.3527L9.6406 12.1131L7.74077 14.0129ZM9.96397 11.7897L11.2036 13.0293L12.5105 11.7223L11.2709 10.4827L9.96397 11.7897ZM11.3653 13.5009V13.5144L7.51172 17.3544C7.4713 17.3948 7.4174 17.4218 7.3635 17.4218C7.29613 17.4218 7.24224 17.3948 7.20182 17.3544L5.63884 15.7914C5.59842 15.751 5.57147 15.6971 5.57147 15.6298C5.57147 15.5759 5.59842 15.522 5.63884 15.4815L11.1093 10.0111C11.2036 9.91681 11.3383 9.91681 11.4326 10.0111L12.9821 11.5606C13.0226 11.6145 13.0495 11.6684 13.0495 11.7223C13.0495 11.7897 13.0226 11.8436 12.9821 11.884L11.3653 13.5009ZM3.56385 20.7633C3.20006 20.7633 2.87668 20.6286 2.62068 20.3726C2.36468 20.1166 2.22994 19.7932 2.22994 19.4294C2.22994 19.0791 2.36468 18.7422 2.62068 18.4997C2.87668 18.2437 3.20006 18.109 3.56385 18.109C3.91418 18.109 4.25103 18.2437 4.49356 18.4997C5.01904 19.0117 5.01904 19.8606 4.49356 20.3726C4.25103 20.6286 3.91418 20.7633 3.56385 20.7633ZM3.56385 18.5536C3.32132 18.5536 3.10574 18.6479 2.94405 18.8096C2.59373 19.1599 2.59373 19.7124 2.94405 20.0492C3.10574 20.2244 3.32132 20.3052 3.56385 20.3052C3.79291 20.3052 4.00849 20.2244 4.18366 20.0492C4.5205 19.7124 4.5205 19.1599 4.18366 18.8096C4.00849 18.6479 3.79291 18.5536 3.56385 18.5536ZM16.0946 10.3076L12.6992 6.88518L1.15202 18.4323C0.208846 19.3755 0.208846 20.8981 1.15202 21.8412C1.61013 22.2994 2.20299 22.5419 2.84974 22.5419C3.49649 22.5419 4.10281 22.2994 4.56093 21.8412L16.0946 10.3076ZM13.0091 6.5618L16.418 9.99766C16.6605 9.83597 16.9435 9.74165 17.2264 9.74165H17.3612C17.5363 9.7686 17.7115 9.78207 17.8866 9.78207C19.1262 9.78207 20.2985 9.29701 21.1743 8.40773C22.1714 7.41066 22.6564 6.03632 22.5217 4.64851L19.7595 7.42414C19.6652 7.50498 19.5305 7.50498 19.4361 7.42414L15.5691 3.55712C15.5287 3.5167 15.5152 3.4628 15.5152 3.39543C15.5152 3.34153 15.5287 3.28764 15.5691 3.23374L18.3448 0.471588C18.1831 0.458114 18.0349 0.44464 17.8866 0.44464C16.6066 0.44464 15.4074 0.956649 14.5182 1.88635C13.5615 2.86995 13.1034 4.24429 13.2516 5.6321C13.292 5.95548 13.1977 6.29233 13.0091 6.5618Z" fill="black"/>
</svg>
