<svg width="36" height="36" viewBox="0 0 36 36" fill="none" xmlns="http://www.w3.org/2000/svg">
<g clip-path="url(#clip0_139_1238)">
<path d="M25.2266 12.7535L16.0977 20.2153L15.6682 20.5671C15.5738 20.6419 15.5122 20.7505 15.4964 20.8699L15.4002 21.6635L15.1364 23.893C15.1388 23.9202 15.1304 23.9471 15.1129 23.9681C15.0955 23.989 15.0704 24.0021 15.0433 24.0045C15.0162 24.007 14.9892 23.9985 14.9683 23.9811C14.9474 23.9636 14.9343 23.9386 14.9318 23.9114L14.1893 21.6819L13.4223 19.4012C13.3895 19.299 13.3937 19.1886 13.4341 19.0891C13.4745 18.9897 13.5485 18.9076 13.6432 18.8571L23.1423 13.4121L24.93 12.3894C25.1898 12.238 25.4557 12.5653 25.2266 12.7535Z" fill="white"/>
<path d="M31.0909 0H4.90909C3.60712 0 2.35847 0.517206 1.43784 1.43784C0.517206 2.35847 0 3.60712 0 4.90909L0 31.0909C0 32.3929 0.517206 33.6415 1.43784 34.5622C2.35847 35.4828 3.60712 36 4.90909 36H31.0909C32.3929 36 33.6415 35.4828 34.5622 34.5622C35.4828 33.6415 36 32.3929 36 31.0909V4.90909C36 3.60712 35.4828 2.35847 34.5622 1.43784C33.6415 0.517206 32.3929 0 31.0909 0ZM29.2275 10.4195L25.7134 25.9466C25.5477 26.6748 24.6232 27.0041 23.9748 26.5602L18.6689 22.9602L15.9668 25.515C15.8566 25.6184 15.7229 25.6933 15.5772 25.7333C15.4315 25.7733 15.2782 25.7772 15.1307 25.7445C14.9832 25.7119 14.8459 25.6437 14.7307 25.546C14.6154 25.4482 14.5258 25.3239 14.4695 25.1836L13.4939 22.32L12.5182 19.4564L7.28795 18.0245C7.14172 17.9926 7.01013 17.9133 6.91364 17.7988C6.81715 17.6844 6.76117 17.5413 6.75441 17.3918C6.74764 17.2422 6.79047 17.0947 6.87623 16.972C6.96199 16.8493 7.08588 16.7584 7.22864 16.7134L27.4336 9.43364L27.8059 9.30068C28.5893 9.02659 29.3993 9.66068 29.2275 10.4195Z" fill="white"/>
</g>
<defs>
<clipPath id="clip0_139_1238">
<rect width="36" height="36" fill="white"/>
</clipPath>
</defs>
</svg>
