<svg width="36" height="36" viewBox="0 0 36 36" fill="none" xmlns="http://www.w3.org/2000/svg">
<g clip-path="url(#clip0_139_1243)">
<path d="M24.2243 11.7758L24.1793 11.7308C22.7084 10.2594 20.7607 9.36107 18.6866 9.19748C16.6124 9.03388 14.548 9.61573 12.8646 10.8384C11.1811 12.061 9.98917 13.8442 9.50311 15.8672C9.01704 17.8902 9.26875 20.0202 10.213 21.8742L10.5975 22.631L9.88161 26.1083L9.87138 26.1533L13.3262 25.3351L14.1137 25.734C15.7522 26.548 17.6047 26.8279 19.4106 26.5344C21.2165 26.2408 22.885 25.3886 24.1814 24.0976C25.8121 22.4667 26.7319 20.2573 26.7403 17.9511C26.7487 15.6448 25.8451 13.4288 24.2264 11.786L24.2243 11.7758ZM23.8725 21.5367C23.4491 22.2035 22.7802 23.0176 21.9396 23.2201C20.4668 23.5781 18.2066 23.2324 15.3941 20.6122L15.3593 20.5794C12.8864 18.2885 12.2441 16.3801 12.3996 14.8665C12.4855 14.0053 13.2014 13.2301 13.8048 12.7208C13.9004 12.6398 14.0135 12.5822 14.1352 12.5526C14.2569 12.5229 14.3839 12.5221 14.506 12.5501C14.6281 12.578 14.742 12.6341 14.8386 12.7138C14.9353 12.7935 15.012 12.8947 15.0627 13.0092L15.973 15.0669C16.0326 15.1995 16.0547 15.3458 16.0371 15.49C16.0194 15.6343 15.9626 15.7709 15.8727 15.8851L15.4125 16.4824C15.3161 16.6049 15.258 16.753 15.2452 16.9083C15.2325 17.0636 15.2658 17.2193 15.3409 17.3558C15.5987 17.8058 16.2164 18.4706 16.9016 19.0883C17.6707 19.7817 18.5237 20.4178 19.0637 20.6367C19.2085 20.6947 19.3672 20.7083 19.5198 20.6759C19.6724 20.6435 19.8119 20.5665 19.9207 20.4547L20.4546 19.9167C20.5576 19.8151 20.6857 19.7427 20.8258 19.7067C20.9659 19.6708 21.1131 19.6727 21.2523 19.7122L23.4143 20.3258C23.5339 20.3623 23.6435 20.4257 23.7347 20.5112C23.826 20.5966 23.8964 20.7019 23.9407 20.8188C23.9849 20.9357 24.0018 21.0612 23.99 21.1857C23.9781 21.3101 23.938 21.4302 23.8725 21.5367Z" fill="white"/>
<path d="M31.0909 0H4.90909C3.60712 0 2.35847 0.517206 1.43784 1.43784C0.517206 2.35847 0 3.60712 0 4.90909L0 31.0909C0 32.3929 0.517206 33.6415 1.43784 34.5622C2.35847 35.4828 3.60712 36 4.90909 36H31.0909C32.3929 36 33.6415 35.4828 34.5622 34.5622C35.4828 33.6415 36 32.3929 36 31.0909V4.90909C36 3.60712 35.4828 2.35847 34.5622 1.43784C33.6415 0.517206 32.3929 0 31.0909 0ZM29.1539 18.2659C29.0935 20.1346 28.5647 21.9582 27.616 23.5694C26.6673 25.1805 25.3291 26.5275 23.7242 27.4867C22.1193 28.4459 20.2992 28.9866 18.4309 29.0592C16.5626 29.1318 14.706 28.7339 13.0316 27.902L7.39636 29.2377C7.31095 29.2576 7.22153 29.2513 7.13978 29.2195C7.05803 29.1878 6.98777 29.1321 6.93818 29.0598C6.90471 29.0118 6.88145 28.9574 6.86984 28.9001C6.85823 28.8427 6.85852 28.7836 6.87068 28.7264L8.055 22.9766C7.28251 21.4597 6.86725 19.7862 6.841 18.0842C6.81474 16.3822 7.17819 14.6967 7.90353 13.1567C8.62887 11.6167 9.69688 10.2631 11.0258 9.19939C12.3548 8.13567 13.9095 7.39005 15.5709 7.01959C17.2323 6.64913 18.9565 6.66364 20.6115 7.06202C22.2664 7.4604 23.8083 8.23209 25.1192 9.31803C26.4301 10.404 27.4751 11.7754 28.1744 13.3274C28.8737 14.8793 29.2088 16.5707 29.1539 18.272V18.2659Z" fill="white"/>
</g>
<defs>
<clipPath id="clip0_139_1243">
<rect width="36" height="36" fill="white"/>
</clipPath>
</defs>
</svg>
